<svg width="128" height="131" viewBox="0 0 128 131" fill="none" xmlns="http://www.w3.org/2000/svg">
<g filter="url(#filter0_d_16_988)">
<path d="M122.998 61.4849C122.998 95.4421 95.4706 122.97 61.5135 122.97H61.4849C27.5277 122.97 0 95.4422 0 61.485C0 27.5278 27.5277 0 61.4849 0H61.5135C95.4706 0 122.998 27.5277 122.998 61.4849Z" fill="#5D35EE"/>
<path d="M121.498 61.4849C121.498 94.6137 94.6422 121.47 61.5135 121.47H61.4849C28.3562 121.47 1.5 94.6138 1.5 61.485C1.5 28.3563 28.3562 1.5 61.4849 1.5H61.5135C94.6422 1.5 121.498 28.3562 121.498 61.4849Z" stroke="black" stroke-width="3"/>
</g>
<path d="M104.965 40.8541V91.8399C104.965 93.5664 104.533 95.2655 103.709 96.7827L97.904 107.475C97.6424 107.957 96.9509 107.956 96.6895 107.475L90.8906 96.7808C90.0685 95.2648 89.6379 93.5675 89.6379 91.8428V40.8541C89.6379 36.6217 93.0689 33.1907 97.3013 33.1907C101.534 33.1907 104.965 36.6217 104.965 40.8541Z" fill="#D875E6"/>
<path d="M104.965 40.856V91.8429C104.965 93.563 104.532 95.2638 103.706 96.7821L97.9021 107.477C97.6426 107.958 96.9508 107.958 96.6913 107.477L95.0674 104.489L99.2473 96.7821C100.074 95.2638 100.506 93.563 100.506 91.8429V40.856C100.506 38.7323 99.651 36.82 98.2576 35.4363C97.3831 34.5523 96.2974 33.8892 95.077 33.5144C95.7785 33.3031 96.528 33.1877 97.2967 33.1877C99.4108 33.1877 101.333 34.043 102.716 35.4363C104.11 36.82 104.965 38.7323 104.965 40.856Z" fill="#B24EC1"/>
<path d="M89.6632 92.2508C89.726 93.8337 90.1337 95.385 90.8906 96.7807L96.6895 107.474C96.9509 107.956 97.6424 107.956 97.904 107.475L103.709 96.7826C104.467 95.3865 104.876 93.8345 104.939 92.2508L89.6632 92.2508Z" fill="white"/>
<path d="M89.6375 46.381H104.964V52.3224H89.6375V46.381Z" fill="#E4E3FF"/>
<path d="M104.965 46.3814V40.8541C104.965 36.6217 101.534 33.1907 97.3013 33.1907C93.0689 33.1907 89.6379 36.6217 89.6379 40.8541V46.3814H104.965Z" fill="white"/>
<path d="M104.965 40.8559V46.3812H89.638V43.2486H95.4998C98.5513 43.2486 101.025 40.7748 101.025 37.7233C101.025 36.205 100.593 34.802 99.8336 33.6201C102.822 34.6675 104.965 37.5119 104.965 40.8559Z" fill="#D875E6"/>
<path d="M84.0345 28.5229V100.787C84.0345 104.68 80.8786 107.836 76.9857 107.836H25.0851C21.1922 107.836 18.0363 104.68 18.0363 100.787V28.5229C18.0363 24.63 21.1922 21.4741 25.0851 21.4741H76.9857C80.8786 21.4741 84.0345 24.63 84.0345 28.5229Z" fill="white"/>
<path d="M84.033 28.5272V100.783C84.033 104.684 80.8812 107.836 76.9894 107.836H25.0895C21.438 107.836 18.4399 105.068 18.0747 101.513C18.3822 101.561 18.6993 101.58 19.0165 101.58H59.7258C69.7962 101.58 77.9599 93.4165 77.9599 83.3461V22.262C77.9599 22.0217 77.9503 21.7815 77.9215 21.5413C81.3713 21.9929 84.033 24.943 84.033 28.5272Z" fill="#E4E3FF"/>
<path d="M76.9858 108.797H25.0852C20.6681 108.797 17.075 105.204 17.075 100.787V28.5227C17.075 24.1061 20.6681 20.5129 25.0852 20.5129H76.9858C81.4019 20.5129 84.9951 24.1061 84.9951 28.5227V100.787C84.9951 105.204 81.4019 108.797 76.9858 108.797ZM25.0852 22.4348C21.7285 22.4348 18.9968 25.166 18.9968 28.5227V100.787C18.9968 104.144 21.7285 106.875 25.0852 106.875H76.9858C80.3425 106.875 83.0732 104.144 83.0732 100.787V28.5227C83.0732 25.166 80.3425 22.4348 76.9858 22.4348H25.0852Z" fill="#1B1B1B"/>
<path d="M65.7755 18.4125V25.0223C65.7755 25.8984 65.0653 26.6086 64.1893 26.6086H37.8803C37.0043 26.6086 36.2941 25.8984 36.2941 25.0223V18.4125C36.2941 17.5365 37.0043 16.8263 37.8803 16.8263H44.414C44.414 13.1748 47.3833 10.2151 51.0349 10.2151C54.6864 10.2151 57.6556 13.1748 57.6556 16.8263H64.1893C65.0653 16.8263 65.7755 17.5365 65.7755 18.4125Z" fill="#5D35EE"/>
<path d="M51.035 19.3711C52.4281 19.3711 53.5574 18.2417 53.5574 16.8486C53.5574 15.4555 52.4281 14.3262 51.035 14.3262C49.6419 14.3262 48.5126 15.4555 48.5126 16.8486C48.5126 18.2417 49.6419 19.3711 51.035 19.3711Z" fill="white"/>
<path d="M39.4737 65.5501V72.7424C39.4737 74.2091 38.2848 75.398 36.8181 75.398H29.6258C28.1591 75.398 26.9702 74.2091 26.9702 72.7424V65.5501C26.9702 64.0834 28.1591 62.8945 29.6258 62.8945H36.8181C38.2848 62.8945 39.4737 64.0834 39.4737 65.5501Z" fill="#00D67F"/>
<path d="M39.4758 65.549V72.7435C39.4758 74.2143 38.2821 75.3974 36.8219 75.3974H29.6274C28.1886 75.3974 27.0267 74.2676 26.9735 72.8394H34.072C35.5322 72.8394 36.726 71.6563 36.726 70.1854V62.8951H36.8219C38.2821 62.8951 39.4758 64.0781 39.4758 65.549Z" fill="#00AF68"/>
<path d="M36.8181 76.3592H29.6262C27.632 76.3592 26.0095 74.7366 26.0095 72.7425V65.5501C26.0095 63.556 27.632 61.9335 29.6262 61.9335H36.8181C38.8123 61.9335 40.4348 63.556 40.4348 65.5501V72.7425C40.4348 74.7366 38.8122 76.3592 36.8181 76.3592ZM29.6262 63.8553C28.6915 63.8553 27.9314 64.6154 27.9314 65.5501V72.7425C27.9314 73.6772 28.6915 74.4373 29.6262 74.4373H36.8181C37.7528 74.4373 38.5129 73.6772 38.5129 72.7425V65.5501C38.5129 64.6154 37.7528 63.8553 36.8181 63.8553H29.6262Z" fill="#1B1B1B"/>
<path d="M75.1005 68.0809H49.5092C48.978 68.0809 48.5482 67.6507 48.5482 67.12C48.5482 66.5893 48.978 66.1591 49.5092 66.1591H75.1005C75.6316 66.1591 76.0614 66.5893 76.0614 67.12C76.0614 67.6507 75.6316 68.0809 75.1005 68.0809Z" fill="#1B1B1B"/>
<path d="M67.5885 73.5801H49.5092C48.978 73.5801 48.5482 73.1498 48.5482 72.6191C48.5482 72.0885 48.978 71.6582 49.5092 71.6582H67.5885C68.1197 71.6582 68.5495 72.0885 68.5495 72.6191C68.5495 73.1498 68.1197 73.5801 67.5885 73.5801Z" fill="#1B1B1B"/>
<path d="M34.322 70.7616C34.0751 70.7616 33.8293 70.6668 33.6425 70.4801L31.5199 68.3574C31.1445 67.982 31.1445 67.3739 31.5199 66.9986C31.8952 66.6232 32.5033 66.6232 32.8787 66.9986L34.3745 68.4944L42.1211 61.911C42.5255 61.5666 43.1336 61.6182 43.4752 62.0213C43.8196 62.4257 43.7698 63.0319 43.3654 63.3759L34.9441 70.5331C34.7639 70.686 34.5425 70.7616 34.322 70.7616Z" fill="#1B1B1B"/>
<path d="M39.4737 90.1822V97.3745C39.4737 98.8412 38.2848 100.03 36.8181 100.03H29.6258C28.1591 100.03 26.9702 98.8412 26.9702 97.3745V90.1822C26.9702 88.7155 28.1591 87.5266 29.6258 87.5266H36.8181C38.2848 87.5266 39.4737 88.7155 39.4737 90.1822Z" fill="#FF6F6F"/>
<path d="M39.4758 90.1856V97.3695C39.4758 98.8404 38.2821 100.034 36.8218 100.034H29.6274C28.2418 100.034 27.112 98.9789 26.9841 97.636C27.0907 97.6466 27.208 97.6572 27.3145 97.6572H34.4983C35.9692 97.6572 37.1629 96.4635 37.1629 95.0033V87.8088C37.1629 87.7235 37.1629 87.6383 37.1523 87.553C38.4633 87.7129 39.4758 88.8321 39.4758 90.1856Z" fill="#EA4642"/>
<path d="M36.8181 100.991H29.6262C27.632 100.991 26.0095 99.3689 26.0095 97.3748V90.1819C26.0095 88.1878 27.632 86.5653 29.6262 86.5653H36.8181C38.8123 86.5653 40.4348 88.1878 40.4348 90.1819V97.3748C40.4348 99.3689 38.8122 100.991 36.8181 100.991ZM29.6262 88.4872C28.6915 88.4872 27.9314 89.2473 27.9314 90.1819V97.3748C27.9314 98.3095 28.6915 99.0696 29.6262 99.0696H36.8181C37.7528 99.0696 38.5129 98.3095 38.5129 97.3748V90.1819C38.5129 89.2473 37.7528 88.4872 36.8181 88.4872H29.6262Z" fill="#1B1B1B"/>
<path d="M69.6268 92.7128H49.5092C48.978 92.7128 48.5482 92.283 48.5482 91.7519C48.5482 91.2207 48.978 90.791 49.5092 90.791H69.6268C70.1579 90.791 70.5877 91.2207 70.5877 91.7519C70.5877 92.283 70.1579 92.7128 69.6268 92.7128Z" fill="#1B1B1B"/>
<path d="M61.8802 98.2119H49.5092C48.978 98.2119 48.5482 97.7821 48.5482 97.251C48.5482 96.7198 48.978 96.29 49.5092 96.29H61.8802C62.4113 96.29 62.8411 96.7198 62.8411 97.251C62.8411 97.7821 62.4113 98.2119 61.8802 98.2119Z" fill="#1B1B1B"/>
<path d="M34.322 95.3938C34.0751 95.3938 33.8293 95.2991 33.6425 95.1123L31.5199 92.9896C31.1445 92.6143 31.1445 92.0062 31.5199 91.6308C31.8952 91.2555 32.5033 91.2555 32.8787 91.6308L34.3745 93.1266L42.1211 86.5437C42.5246 86.2012 43.1327 86.249 43.4752 86.6535C43.8196 87.058 43.7698 87.6642 43.3654 88.0076L34.9441 95.1649C34.7639 95.3178 34.5425 95.3938 34.322 95.3938Z" fill="#1B1B1B"/>
<path d="M39.4737 42.5192V49.7115C39.4737 51.1781 38.2848 52.3671 36.8181 52.3671H29.6258C28.1591 52.3671 26.9702 51.1781 26.9702 49.7115V42.5192C26.9702 41.0525 28.1591 39.8635 29.6258 39.8635H36.8181C38.2848 39.8635 39.4737 41.0525 39.4737 42.5192Z" fill="#A2A2F9"/>
<path d="M39.4758 42.5179V49.7124C39.4758 51.1833 38.2821 52.3663 36.8219 52.3663H29.6274C28.1886 52.3663 27.0267 51.2365 26.9735 49.8084H34.072C35.5322 49.8084 36.726 48.6252 36.726 47.1544V39.864H36.8219C38.2821 39.864 39.4758 41.0471 39.4758 42.5179Z" fill="#7979F7"/>
<path d="M36.8181 53.3278H29.6262C27.632 53.3278 26.0095 51.7053 26.0095 49.7112V42.5192C26.0095 40.5251 27.632 38.9026 29.6262 38.9026H36.8181C38.8123 38.9026 40.4348 40.5251 40.4348 42.5192V49.7112C40.4348 51.7053 38.8122 53.3278 36.8181 53.3278ZM29.6262 40.8245C28.6915 40.8245 27.9314 41.5846 27.9314 42.5192V49.7112C27.9314 50.6458 28.6915 51.406 29.6262 51.406H36.8181C37.7528 51.406 38.5129 50.6458 38.5129 49.7112V42.5192C38.5129 41.5846 37.7528 40.8245 36.8181 40.8245H29.6262Z" fill="#1B1B1B"/>
<path d="M75.1005 45.05H49.5092C48.978 45.05 48.5482 44.6198 48.5482 44.0891C48.5482 43.5584 48.978 43.1282 49.5092 43.1282H75.1005C75.6316 43.1282 76.0614 43.5584 76.0614 44.0891C76.0614 44.6198 75.6316 45.05 75.1005 45.05Z" fill="#1B1B1B"/>
<path d="M67.5885 50.5487H49.5092C48.978 50.5487 48.5482 50.1184 48.5482 49.5878C48.5482 49.0571 48.978 48.6268 49.5092 48.6268H67.5885C68.1197 48.6268 68.5495 49.0571 68.5495 49.5878C68.5495 50.1184 68.1197 50.5487 67.5885 50.5487Z" fill="#1B1B1B"/>
<path d="M34.322 47.7306C34.0751 47.7306 33.8293 47.6359 33.6425 47.4491L31.5199 45.3264C31.1445 44.9511 31.1445 44.343 31.5199 43.9676C31.8952 43.5923 32.5033 43.5923 32.8787 43.9676L34.3745 45.4634L42.1211 38.88C42.5246 38.5371 43.1327 38.5849 43.4752 38.9898C43.8196 39.3938 43.7698 40.0005 43.3654 40.344L34.9441 47.5017C34.7639 47.6551 34.5425 47.7306 34.322 47.7306Z" fill="#1B1B1B"/>
<path d="M64.1896 27.5693H37.8804C36.4756 27.5693 35.3336 26.4268 35.3336 25.0225V18.4123C35.3336 17.008 36.4756 15.8655 37.8804 15.8655H43.5137C43.9876 12.1419 47.18 9.25391 51.035 9.25391C54.89 9.25391 58.0815 12.1419 58.5554 15.8655H64.1896C65.5944 15.8655 66.7365 17.008 66.7365 18.4123V25.0225C66.7365 26.4268 65.5944 27.5693 64.1896 27.5693ZM37.8804 17.7873C37.536 17.7873 37.2554 18.0679 37.2554 18.4123V25.0225C37.2554 25.3669 37.536 25.6474 37.8804 25.6474H64.1896C64.534 25.6474 64.8146 25.3669 64.8146 25.0225V18.4123C64.8146 18.0679 64.534 17.7873 64.1896 17.7873H57.6555C57.1244 17.7873 56.6946 17.3571 56.6946 16.8264C56.6946 13.7104 54.1562 11.1758 51.035 11.1758C47.9139 11.1758 45.3745 13.7104 45.3745 16.8264C45.3745 17.3571 44.9447 17.7873 44.4136 17.7873H37.8804Z" fill="#1B1B1B"/>
<path d="M51.035 20.3319C49.1141 20.3319 47.5517 18.7694 47.5517 16.8485C47.5517 14.928 49.1141 13.3656 51.035 13.3656C52.955 13.3656 54.5175 14.9281 54.5175 16.8485C54.5175 18.7694 52.955 20.3319 51.035 20.3319ZM51.035 15.2875C50.1736 15.2875 49.4735 15.9875 49.4735 16.8485C49.4735 17.7095 50.1736 18.41 51.035 18.41C51.8955 18.41 52.5956 17.7095 52.5956 16.8485C52.5956 15.9875 51.8955 15.2875 51.035 15.2875Z" fill="#1B1B1B"/>
<path d="M97.2967 108.797C97.2958 108.797 97.2958 108.797 97.2948 108.797C96.6886 108.796 96.1331 108.465 95.845 107.933L90.0456 97.2387C89.1494 95.5871 88.6765 93.7206 88.6765 91.8428V40.8539C88.6765 36.0986 92.5455 32.2295 97.3014 32.2295C102.056 32.2295 105.925 36.0986 105.925 40.8539V91.84C105.925 93.7196 105.451 95.5871 104.554 97.2406L98.7484 107.934C98.4584 108.466 97.902 108.797 97.2967 108.797ZM97.3014 34.1514C93.605 34.1514 90.5983 37.158 90.5983 40.8539V91.8428C90.5983 93.4015 90.9915 94.9509 91.7347 96.3228L97.2967 106.579L102.865 96.3237C103.61 94.9518 104.004 93.4006 104.004 91.84V40.8539C104.004 37.158 100.997 34.1514 97.3014 34.1514Z" fill="#1B1B1B"/>
<path d="M104.964 53.2836H89.6374C89.1063 53.2836 88.6765 52.8533 88.6765 52.3226V46.3811C88.6765 45.8504 89.1063 45.4202 89.6374 45.4202H104.964C105.496 45.4202 105.925 45.8504 105.925 46.3811V52.3226C105.925 52.8533 105.496 53.2836 104.964 53.2836ZM90.5983 51.3617H104.004V47.342H90.5983V51.3617Z" fill="#1B1B1B"/>
<path d="M97.2967 108.799C96.6895 108.799 96.1331 108.468 95.8459 107.934L90.0428 97.2414C89.232 95.7334 88.7703 94.0189 88.7065 92.2819C88.6962 92.0211 88.7938 91.7677 88.9749 91.5791C89.156 91.3914 89.4056 91.2853 89.6665 91.2853H104.936C105.197 91.2853 105.447 91.3914 105.628 91.5791C105.809 91.7677 105.907 92.021 105.896 92.2819C105.832 94.0274 105.367 95.7428 104.55 97.2424L98.7465 107.936C98.4603 108.468 97.9038 108.799 97.2967 108.799ZM90.7156 93.2072C90.8723 94.3051 91.2177 95.3683 91.7338 96.3274L97.2967 106.579L102.861 96.3246C103.381 95.3693 103.729 94.307 103.887 93.2072H90.7156Z" fill="#1B1B1B"/>
<path d="M107.588 108.797H15.413C14.8819 108.797 14.4521 108.367 14.4521 107.836C14.4521 107.305 14.8819 106.875 15.413 106.875H107.588C108.119 106.875 108.549 107.305 108.549 107.836C108.549 108.367 108.119 108.797 107.588 108.797Z" fill="#1B1B1B"/>
<path d="M101.112 101.567L97.9022 107.477C97.6427 107.958 96.9508 107.958 96.6914 107.477L93.4914 101.577C94.51 100.664 95.8361 100.126 97.3064 100.126C98.7669 100.126 100.093 100.664 101.112 101.567Z" fill="#474646"/>
<path d="M97.2967 108.799C96.6895 108.799 96.1331 108.468 95.8459 107.934L92.6469 102.035C92.4348 101.644 92.5183 101.158 92.8496 100.862C94.0695 99.7677 95.6526 99.1652 97.3061 99.1652C98.9483 99.1652 100.526 99.763 101.749 100.849C102.084 101.145 102.169 101.633 101.956 102.026L98.7465 107.937C98.4603 108.468 97.9038 108.799 97.2967 108.799ZM94.7264 101.838L97.2967 106.579L99.8736 101.833C98.3327 100.852 96.2279 100.862 94.7264 101.838Z" fill="#1B1B1B"/>
<defs>
<filter id="filter0_d_16_988" x="0" y="0" width="127.998" height="130.97" filterUnits="userSpaceOnUse" color-interpolation-filters="sRGB">
<feFlood flood-opacity="0" result="BackgroundImageFix"/>
<feColorMatrix in="SourceAlpha" type="matrix" values="0 0 0 0 0 0 0 0 0 0 0 0 0 0 0 0 0 0 127 0" result="hardAlpha"/>
<feOffset dx="5" dy="8"/>
<feComposite in2="hardAlpha" operator="out"/>
<feColorMatrix type="matrix" values="0 0 0 0 0 0 0 0 0 0 0 0 0 0 0 0 0 0 1 0"/>
<feBlend mode="normal" in2="BackgroundImageFix" result="effect1_dropShadow_16_988"/>
<feBlend mode="normal" in="SourceGraphic" in2="effect1_dropShadow_16_988" result="shape"/>
</filter>
</defs>
</svg>
