<svg width="159" height="143" viewBox="0 0 159 143" fill="none" xmlns="http://www.w3.org/2000/svg">
<g filter="url(#filter0_d_16_1113)">
<path d="M145.998 72.4849C145.998 106.442 118.471 133.97 84.5135 133.97H84.4849C50.5277 133.97 23 106.442 23 72.485C23 38.5278 50.5277 11 84.4849 11H84.5135C118.471 11 145.998 38.5277 145.998 72.4849Z" fill="#5D35EE"/>
<path d="M144.498 72.4849C144.498 105.614 117.642 132.47 84.5135 132.47H84.4849C51.3562 132.47 24.5 105.614 24.5 72.485C24.5 39.3563 51.3562 12.5 84.4849 12.5H84.5135C117.642 12.5 144.498 39.3562 144.498 72.4849Z" stroke="black" stroke-width="3"/>
</g>
<g clip-path="url(#clip0_16_1113)">
<path d="M152.459 80.2818C152.459 80.2818 148.292 83.6838 141.153 87.2177H77.0656C69.9261 83.6838 65.7596 80.2818 65.7596 80.2818C82.233 63.8123 95.1328 40.2229 95.1328 40.2229C95.1328 40.2229 95.1328 38.1515 95.1328 33.2893C95.1328 28.4294 91.6897 15.4617 91.6897 15.4617C93.0401 11.6623 96.2925 10.8559 99.6242 11.2045C104.287 11.6943 109.109 14.4508 109.109 14.4508C109.109 14.4508 123.289 6.34841 126.53 15.4617C126.53 15.4617 123.085 28.4294 123.085 33.2893V40.2229C123.085 40.2229 135.985 63.8123 152.459 80.2818Z" fill="#CCFF7D"/>
<path d="M123.086 40.2229H95.1328V33.2893H123.086" fill="#6C6CFF"/>
<path d="M98.4196 49.7742C98.4196 49.7742 88.554 72.6669 75.9563 88.6528C75.9563 88.6528 89.7442 98.5138 109.109 98.5138C128.474 98.5138 142.262 88.6528 142.262 88.6528C129.664 72.6669 119.799 49.7742 119.799 49.7742" fill="#CCFF7D"/>
<path d="M153.51 79.2313C138.426 64.1511 126.196 42.7376 124.572 39.8377V33.2886C124.572 31.9848 124.85 29.8676 125.397 26.9959C125.551 26.1887 125.022 25.4098 124.215 25.2572C123.409 25.1031 122.631 25.6318 122.477 26.439C122.055 28.6469 121.789 30.4184 121.67 31.8024H96.545C96.1048 26.7457 93.819 17.7407 93.2506 15.5526C93.7954 14.2823 94.6461 13.4476 95.8393 13.0036C99.6769 11.5807 106.188 14.4982 108.372 15.7433C108.828 16.0027 109.389 16.0027 109.845 15.7433C112.031 14.4982 118.543 11.5784 122.382 13.0036C123.573 13.4476 124.424 14.2838 124.971 15.5526C124.749 16.401 124.261 18.3121 123.73 20.5933C123.544 21.3944 124.041 22.1932 124.84 22.3794C125.64 22.5655 126.439 22.0681 126.625 21.2693C127.333 18.2328 127.96 15.8677 127.967 15.844C128.043 15.5526 128.031 15.2474 127.93 14.9643C127.282 13.1402 126.22 11.773 124.765 10.875C124.628 8.80971 123.867 3.83611 119.799 0.35787C119.464 0.0725311 119.022 -0.052591 118.588 0.0206512C118.156 0.0923674 117.778 0.351767 117.553 0.730185C117.424 0.946097 114.6 5.76711 114.198 10.6545C113.972 10.7285 113.744 10.8018 113.512 10.8826C111.597 11.5426 109.993 12.3101 109.11 12.7656C108.223 12.3101 106.622 11.5426 104.705 10.8826C104.475 10.8018 104.248 10.7285 104.02 10.6545C103.617 5.76711 100.795 0.946097 100.666 0.730185C100.441 0.351767 100.063 0.0923674 99.6288 0.0206512C99.197 -0.052591 98.753 0.0725311 98.4196 0.35787C94.3508 3.83611 93.5894 8.81124 93.4543 10.875C91.9994 11.773 90.9374 13.1402 90.2889 14.9643C90.1882 15.2474 90.176 15.5526 90.253 15.844C90.2874 15.9707 93.6466 28.6782 93.6466 33.2886V39.8377C92.0215 42.7376 79.7916 64.1511 64.7075 79.2313C64.41 79.5281 64.2536 79.937 64.2757 80.3567C64.2956 80.777 64.4932 81.1677 64.8182 81.4332C64.9814 81.5659 68.5749 84.4758 74.7928 87.7289C74.7905 87.7289 74.789 87.7305 74.789 87.7328C74.5373 88.0517 74.4259 88.4598 74.4838 88.8627C74.5411 89.2647 74.7608 89.6256 75.0904 89.8614C75.2048 89.9445 77.9499 91.8954 82.6977 94.0774C82.8998 94.1689 83.1096 94.2139 83.3179 94.2139C83.881 94.2139 84.4196 93.8912 84.6699 93.348C85.0124 92.6011 84.6859 91.7184 83.9405 91.3758C81.3099 90.1665 79.3201 89.0252 78.1208 88.2874C90.2218 72.4106 99.6883 50.5852 99.7837 50.3609C100.109 49.6079 99.7616 48.7336 99.0085 48.4086C98.2532 48.0835 97.3789 48.4307 97.0539 49.186C96.9608 49.3996 88.0787 69.8693 76.6239 85.328C72.5704 83.239 69.5972 81.2531 68.0118 80.1148C82.2216 65.4633 93.6764 45.8184 96.0033 41.7092H122.213C124.543 45.8184 135.997 65.4633 150.207 80.1148C148.626 81.2508 145.658 83.2352 141.595 85.328C130.138 69.8693 121.256 49.3996 121.163 49.186C120.84 48.4307 119.963 48.0835 119.21 48.4086C118.455 48.7336 118.109 49.6079 118.434 50.3609C118.531 50.5852 127.997 72.4083 140.097 88.2859C136.287 90.6243 124.45 97.0269 109.11 97.0269C102.513 97.0269 95.8568 95.8596 89.3276 93.5563C88.5525 93.2824 87.7041 93.689 87.4309 94.4642C87.1593 95.237 87.566 96.0869 88.3388 96.3608C95.187 98.7748 102.176 100 109.11 100C128.725 100 142.548 90.2756 143.127 89.8614C143.458 89.6256 143.676 89.2647 143.734 88.8627C143.791 88.4598 143.682 88.0517 143.431 87.7328C143.428 87.7305 143.426 87.7289 143.426 87.7289C149.643 84.4758 153.236 81.5659 153.399 81.4332C153.724 81.1677 153.922 80.777 153.944 80.3567C153.964 79.937 153.807 79.5281 153.51 79.2313ZM119.204 4.00854C120.745 5.95556 121.379 8.20089 121.639 9.76873C120.34 9.57265 118.885 9.61233 117.286 9.88775C117.641 7.65996 118.518 5.46956 119.204 4.00854ZM99.0146 4.00854C99.7005 5.46956 100.576 7.65996 100.933 9.88775C99.3336 9.61233 97.8786 9.57265 96.5801 9.76873C96.8403 8.20089 97.4727 5.95556 99.0146 4.00854ZM121.599 38.736H96.6198V34.7756H121.599V38.736Z" fill="black"/>
</g>
<g clip-path="url(#clip1_16_1113)">
<path d="M55.67 115.49C55.0021 115.106 54.5715 114.412 54.5234 113.643L53.3867 96.0301C53.3214 94.9523 52.3948 94.1315 51.3169 94.1965C51.1857 94.2046 51.0556 94.2256 50.9285 94.2596L28.2658 100.332C27.2222 100.61 26.6014 101.681 26.8789 102.724C27.0128 103.227 27.3418 103.656 27.793 103.916L36.6712 109.039L40.4391 123.101C41.285 126.258 43.6525 128.783 46.7482 129.831L56.1371 133.007C57.0198 133.306 57.9911 132.941 58.4577 132.134L59.6024 130.152C60.9068 127.908 61.2594 125.237 60.5816 122.732L60.2335 121.432C59.5664 118.922 57.9232 116.782 55.67 115.49Z" fill="#5D35EE"/>
<path d="M89.6127 110.208C96.9138 108.252 98.528 90.6007 93.2179 70.7833C87.9078 50.9658 77.6844 36.4865 70.3832 38.4428C63.082 40.3992 61.4678 58.0503 66.7779 77.8678C72.088 97.6853 82.3115 112.165 89.6127 110.208Z" fill="#B0BEC5"/>
<path d="M75.0731 63.5003C74.0301 63.7798 73.411 64.852 73.6905 65.895L78.7509 84.7806C79.0304 85.8237 80.1026 86.4427 81.1456 86.1632C86.7009 84.0596 89.5496 77.896 87.5521 72.3017C86.4848 66.4581 80.9359 62.5444 75.0731 63.5003Z" fill="#5D35EE"/>
<path d="M50.9287 94.2596C43.9599 96.1268 39.8504 90.6858 38.4497 85.4584C37.049 80.2309 37.8874 73.4641 44.8562 71.5968C45.8992 71.3174 46.5182 70.2452 46.2388 69.2022C45.9593 68.1591 44.8872 67.5403 43.8441 67.8198L23.0699 73.3862C14.7257 75.622 9.77391 84.1988 12.0097 92.5429C14.2455 100.887 22.8223 105.839 31.1664 103.603L51.9405 98.0367C52.9836 97.7572 53.6026 96.685 53.3231 95.642C53.0437 94.5992 51.9717 93.9801 50.9287 94.2596Z" fill="#5D35EE"/>
<path d="M68.6665 77.3618C65.2802 64.7236 64.6543 52.4467 67.0309 45.3164C67.3738 44.2924 66.8217 43.1844 65.7977 42.8415C65.032 42.5852 64.1875 42.8257 63.672 43.4473L43.2246 67.9858C35.8614 70.3149 32.3528 77.8133 34.6725 86.4705C36.9921 95.1276 43.7799 99.8671 51.3212 98.2026L81.3024 109.245C82.3149 109.62 83.44 109.103 83.8149 108.091C84.0954 107.333 83.8816 106.482 83.2768 105.947C77.6494 100.945 72.053 90.0001 68.6665 77.3618Z" fill="white"/>
<path d="M90.1187 112.097C80.2981 114.728 69.7961 96.6855 64.8895 78.374C59.983 60.0625 60.0566 39.1858 69.8772 36.5544C79.6977 33.923 90.1998 51.9657 95.1064 70.2772C100.013 88.5887 99.9393 109.465 90.1187 112.097ZM70.8892 40.3314C65.5295 41.7676 63.3025 57.343 68.6666 77.3618C74.0306 97.3806 83.7469 109.756 89.1066 108.32C94.4663 106.883 96.6933 91.3081 91.3293 71.2893C85.9653 51.2705 76.249 38.8953 70.8892 40.3314Z" fill="#F5F5F5"/>
<path d="M90.1187 112.097C80.2981 114.728 69.7961 96.6855 64.8895 78.374C59.983 60.0625 60.0566 39.1858 69.8772 36.5544C79.6977 33.923 90.1998 51.9657 95.1064 70.2772C100.013 88.5887 99.9393 109.465 90.1187 112.097ZM70.8892 40.3314C65.5295 41.7676 63.3025 57.343 68.6666 77.3618C74.0306 97.3806 83.7469 109.756 89.1066 108.32C94.4663 106.883 96.6933 91.3081 91.3293 71.2893C85.9653 51.2705 76.249 38.8953 70.8892 40.3314Z" fill="black"/>
<path d="M81.1455 86.163C80.1025 86.4425 79.0303 85.8235 78.7509 84.7804C78.4714 83.7374 79.0904 82.6652 80.1334 82.3858C83.2572 81.5488 84.8882 77.4682 83.7749 73.3134C82.6616 69.1585 79.2088 66.4402 76.0851 67.2772C75.0421 67.5566 73.9699 66.9376 73.6904 65.8946C73.4109 64.8516 74.03 63.7794 75.073 63.4999C80.9358 62.544 86.4847 66.4575 87.552 72.3011C89.5496 77.8958 86.7008 84.0594 81.1455 86.163Z" fill="black"/>
<path d="M82.4831 109.285C82.0928 109.391 81.6792 109.373 81.2995 109.234L51.3402 98.1978L31.1665 103.603C22.8224 105.839 14.2456 100.887 12.0098 92.5432C9.77397 84.199 14.7257 75.6221 23.0699 73.3863L43.2434 67.9808L63.6684 43.4486C64.3552 42.6153 65.5874 42.4966 66.4206 43.1832C67.048 43.7004 67.2899 44.5515 67.0282 45.3213C64.6523 52.4393 65.2792 64.7199 68.6666 77.3618C72.0539 90.0037 77.6514 100.953 83.268 105.929C84.0768 106.644 84.1524 107.88 83.437 108.689C83.1826 108.976 82.8492 109.183 82.4783 109.282L82.4831 109.285ZM24.0819 77.1633C17.8238 78.8402 14.1099 85.2728 15.7868 91.5309C17.4636 97.789 23.8963 101.503 30.1544 99.8261L50.9285 94.2596C51.3188 94.1539 51.7323 94.1718 52.1121 94.3108L75.6263 102.989C70.7197 95.4293 67.0922 87.1129 64.8893 78.3738C62.4305 69.7087 61.4154 60.698 61.8843 51.7031L45.8595 70.9757C45.5969 71.2811 45.2464 71.498 44.856 71.5967L24.0819 77.1633Z" fill="black"/>
<path d="M57.2722 133.043C56.8998 133.142 56.5062 133.13 56.141 133.006L46.7483 129.831C43.6527 128.783 41.2852 126.258 40.4393 123.101L36.6713 109.039L27.7932 103.916C26.8677 103.36 26.568 102.159 27.124 101.233C27.6666 100.33 28.8268 100.019 29.7479 100.53L39.3264 106.06C39.7755 106.319 40.1037 106.745 40.2389 107.245L44.2164 122.089C44.7241 123.983 46.1448 125.498 48.0026 126.127L55.8776 128.79L56.2205 128.196C57.0021 126.848 57.2121 125.244 56.8037 123.74L56.4566 122.445C56.0578 120.94 55.0742 119.657 53.7247 118.881C51.919 117.846 50.7531 115.973 50.6197 113.896L49.628 98.4704C42.7044 99.1921 36.8546 94.6142 34.6725 86.4707C32.2506 77.432 35.9386 69.9383 43.8442 67.82C44.8872 67.5405 45.9594 68.1595 46.2389 69.2026C46.5183 70.2456 45.8993 71.3178 44.8563 71.5972C37.8875 73.4645 37.0491 80.2313 38.4498 85.4588C39.8505 90.6862 43.96 96.1272 50.9288 94.26C51.9717 93.9803 53.044 94.5989 53.3237 95.6419C53.3577 95.7688 53.3789 95.899 53.3867 96.0303L54.5045 113.649C54.5547 114.419 54.9869 115.113 55.6558 115.498C57.9152 116.785 59.5646 118.924 60.2347 121.436L60.5818 122.732C61.2604 125.236 60.9091 127.907 59.6063 130.151L58.4616 132.133C58.2016 132.582 57.7737 132.91 57.2722 133.043Z" fill="black"/>
</g>
<defs>
<filter id="filter0_d_16_1113" x="23" y="11" width="127.998" height="130.97" filterUnits="userSpaceOnUse" color-interpolation-filters="sRGB">
<feFlood flood-opacity="0" result="BackgroundImageFix"/>
<feColorMatrix in="SourceAlpha" type="matrix" values="0 0 0 0 0 0 0 0 0 0 0 0 0 0 0 0 0 0 127 0" result="hardAlpha"/>
<feOffset dx="5" dy="8"/>
<feComposite in2="hardAlpha" operator="out"/>
<feColorMatrix type="matrix" values="0 0 0 0 0 0 0 0 0 0 0 0 0 0 0 0 0 0 1 0"/>
<feBlend mode="normal" in2="BackgroundImageFix" result="effect1_dropShadow_16_1113"/>
<feBlend mode="normal" in="SourceGraphic" in2="effect1_dropShadow_16_1113" result="shape"/>
</filter>
<clipPath id="clip0_16_1113">
<rect width="100" height="100" fill="white" transform="translate(59)"/>
</clipPath>
<clipPath id="clip1_16_1113">
<rect width="89.9392" height="89.9392" fill="white" transform="translate(0 55.278) rotate(-15)"/>
</clipPath>
</defs>
</svg>
