<svg width="128" height="131" viewBox="0 0 128 131" fill="none" xmlns="http://www.w3.org/2000/svg">
<g filter="url(#filter0_d_8_8)">
<path d="M122.998 61.4849C122.998 95.4421 95.4706 122.97 61.5135 122.97H61.4849C27.5277 122.97 0 95.4422 0 61.485C0 27.5278 27.5277 0 61.4849 0H61.5135C95.4706 0 122.998 27.5277 122.998 61.4849Z" fill="#5D35EE"/>
<path d="M121.498 61.4849C121.498 94.6137 94.6422 121.47 61.5135 121.47H61.4849C28.3562 121.47 1.5 94.6138 1.5 61.485C1.5 28.3563 28.3562 1.5 61.4849 1.5H61.5135C94.6422 1.5 121.498 28.3562 121.498 61.4849Z" stroke="black" stroke-width="3"/>
</g>
<g clip-path="url(#clip0_8_8)">
<path d="M42.4661 83.1322H26.8173V64.9028C26.8173 64.1175 27.4539 63.4809 28.2392 63.4809H41.0442C41.8295 63.4809 42.4661 64.1175 42.4661 64.9028V83.1322Z" fill="#D875E6"/>
<path d="M69.8881 83.1321H54.2393V48.0482C54.2393 47.3677 54.7215 46.7825 55.3894 46.6525L68.1944 44.1593C69.0723 43.9885 69.8881 44.6607 69.8881 45.555V83.1321Z" fill="#D875E6"/>
<path d="M97.3101 83.1323H81.6613V32.0057C81.6613 31.2205 82.2979 30.5839 83.0831 30.5839H95.8882C96.6735 30.5839 97.3101 31.2205 97.3101 32.0057V83.1323Z" fill="#D875E6"/>
<path d="M100.689 108.476H23.3112C19.9456 108.476 17.2174 105.748 17.2174 102.383V82.398C17.2174 79.0324 19.9456 76.3042 23.3112 76.3042H100.689C104.055 76.3042 106.783 79.0324 106.783 82.398V102.383C106.783 105.748 104.054 108.476 100.689 108.476Z" fill="#CCFF7D"/>
<path d="M57.2978 44.8482L46.03 34.6385C45.4592 34.1213 44.7763 33.7321 44.0268 33.5546C42.4109 33.1717 40.769 33.7116 39.701 34.8903L26.6201 49.3271C24.975 51.1426 25.1133 53.948 26.9288 55.5931C28.7444 57.2382 31.5498 57.0999 33.1949 55.2844L42.7517 44.7371C43.053 44.4045 43.5669 44.3792 43.8994 44.6806L55.2302 54.9474C57.0457 56.5923 59.8511 56.454 61.4962 54.6386L91.1064 21.9587C91.5452 21.4747 92.2933 21.4377 92.7774 21.8765L96.5457 25.2908C97.3058 25.9796 98.5226 25.4405 98.523 24.4145L98.5289 8.7066C98.5291 8.00704 97.9254 7.46002 97.2293 7.52908L81.5979 9.07914C80.577 9.18029 80.1602 10.4441 80.9203 11.1329L84.4494 14.3308C84.9335 14.7695 84.9704 15.5176 84.5317 16.0017L58.4454 44.7915C58.144 45.124 57.6303 45.1494 57.2978 44.8482Z" fill="#C9F6B0"/>
<path d="M57.2978 44.8482L46.03 34.6385C45.4592 34.1213 44.7763 33.7321 44.0268 33.5546C42.4109 33.1717 40.769 33.7116 39.701 34.8903L26.6201 49.3271C24.975 51.1426 25.1133 53.948 26.9288 55.5931C28.7444 57.2382 31.5498 57.0999 33.1949 55.2844L42.7517 44.7371C43.053 44.4045 43.5669 44.3792 43.8994 44.6806L55.2302 54.9474C57.0457 56.5923 59.8511 56.454 61.4962 54.6386L91.1064 21.9587C91.5452 21.4747 92.2933 21.4377 92.7774 21.8765L96.5457 25.2908C97.3058 25.9796 98.5226 25.4405 98.523 24.4145L98.5289 8.7066C98.5291 8.00704 97.9254 7.46002 97.2293 7.52908L81.5979 9.07914C80.577 9.18029 80.1602 10.4441 80.9203 11.1329L84.4494 14.3308C84.9335 14.7695 84.9704 15.5176 84.5317 16.0017L58.4454 44.7915C58.144 45.124 57.6303 45.1494 57.2978 44.8482Z" fill="#C9F6B0"/>
<path d="M57.2978 44.8482L46.03 34.6385C45.4592 34.1213 44.7763 33.7321 44.0268 33.5546C42.4109 33.1717 40.769 33.7116 39.701 34.8903L26.6201 49.3271C24.975 51.1426 25.1133 53.948 26.9288 55.5931C28.7444 57.2382 31.5498 57.0999 33.1949 55.2844L42.7517 44.7371C43.053 44.4045 43.5669 44.3792 43.8994 44.6806L55.2302 54.9474C57.0457 56.5923 59.8511 56.454 61.4962 54.6386L91.1064 21.9587C91.5452 21.4747 92.2933 21.4377 92.7774 21.8765L96.5457 25.2908C97.3058 25.9796 98.5226 25.4405 98.523 24.4145L98.5289 8.7066C98.5291 8.00704 97.9254 7.46002 97.2293 7.52908L81.5979 9.07914C80.577 9.18029 80.1602 10.4441 80.9203 11.1329L84.4494 14.3308C84.9335 14.7695 84.9704 15.5176 84.5317 16.0017L58.4454 44.7915C58.144 45.124 57.6303 45.1494 57.2978 44.8482Z" fill="#C9F6B0"/>
<path d="M57.2978 44.8482L46.03 34.6385C45.4592 34.1213 44.7763 33.7321 44.0268 33.5546C42.4109 33.1717 40.769 33.7116 39.701 34.8903L26.6201 49.3271C24.975 51.1426 25.1133 53.948 26.9288 55.5931C28.7444 57.2382 31.5498 57.0999 33.1949 55.2844L42.7517 44.7371C43.053 44.4045 43.5669 44.3792 43.8994 44.6806L55.2302 54.9474C57.0457 56.5923 59.8511 56.454 61.4962 54.6386L91.1064 21.9587C91.5452 21.4747 92.2933 21.4377 92.7774 21.8765L96.5457 25.2908C97.3058 25.9796 98.5226 25.4405 98.523 24.4145L98.5289 8.7066C98.5291 8.00704 97.9254 7.46002 97.2293 7.52908L81.5979 9.07914C80.577 9.18029 80.1602 10.4441 80.9203 11.1329L84.4494 14.3308C84.9335 14.7695 84.9704 15.5176 84.5317 16.0017L58.4454 44.7915C58.144 45.124 57.6303 45.1494 57.2978 44.8482Z" fill="#CCFF7D"/>
<path d="M100.689 74.7808H98.8327V32.0059C98.8327 30.3819 97.5114 29.0606 95.8874 29.0606H86.7273L92.0065 23.2339L95.5226 26.4198C96.327 27.1486 97.4436 27.3286 98.4362 26.8886C99.4289 26.4488 100.046 25.501 100.046 24.4153L100.052 8.7072C100.052 7.94426 99.7283 7.21321 99.163 6.70073C98.5977 6.18824 97.8376 5.9384 97.0785 6.01294L81.4474 7.563C80.367 7.67004 79.4844 8.37733 79.1442 9.40839C78.8039 10.4395 79.0926 11.5329 79.8972 12.2617L83.174 15.2308L76.638 22.4444C76.0731 23.0678 76.1206 24.0312 76.744 24.5963C77.3674 25.161 78.3309 25.1139 78.8957 24.4905L85.6602 17.0248C86.1457 16.489 86.3935 15.7963 86.358 15.0742C86.3224 14.3519 86.0078 13.687 85.4721 13.2018L82.5118 10.5195L97.005 9.08238L96.9995 23.6465L93.8001 20.7477C93.2643 20.262 92.5718 20.014 91.8495 20.05C91.1274 20.0855 90.4625 20.4003 89.9771 20.9358L60.367 53.6153C59.2888 54.8054 57.443 54.8964 56.2527 53.818L44.9219 43.5514C44.4596 43.1326 43.8594 42.9207 43.2386 42.9491C42.6152 42.9798 42.0412 43.2514 41.6224 43.7139L32.0655 54.2612C31.5431 54.8379 30.8275 55.1765 30.0505 55.2147C29.2731 55.2529 28.5281 54.9866 27.9514 54.4641C27.3749 53.9417 27.0363 53.2261 26.9981 52.4489C26.9599 51.672 27.2264 50.9265 27.7487 50.35L40.8296 35.9133C41.5429 35.1259 42.6329 34.7902 43.6748 35.037C44.1405 35.1475 44.601 35.4 45.0066 35.7676L56.2744 45.9771C56.7368 46.396 57.3352 46.6078 57.9577 46.5794C58.5811 46.5487 59.1552 46.2771 59.574 45.8146L74.0861 29.7982C74.651 29.1748 74.6037 28.2113 73.9803 27.6462C73.3565 27.0814 72.3933 27.1287 71.8284 27.7521L57.7936 43.2416L47.0527 33.5097C46.2674 32.7979 45.3426 32.3009 44.3776 32.0722C42.2555 31.5686 40.0307 32.2572 38.5718 33.8674L25.4909 48.3041C24.4221 49.4839 23.8765 51.009 23.9549 52.599C24.0333 54.1891 24.726 55.6532 25.9057 56.7221C27.0109 57.7237 28.4194 58.2656 29.9004 58.2656C31.5886 58.2656 33.1902 57.5614 34.3235 56.3073L43.403 46.2869L52.7151 54.7245V74.781H43.9888V64.9024C43.9888 63.2784 42.6674 61.957 41.0435 61.957H28.2384C26.6144 61.957 25.2931 63.2784 25.2931 64.9024V74.781H23.3112C19.111 74.781 15.694 78.198 15.694 82.3982V90.2035C15.694 91.0451 16.3761 91.727 17.2174 91.727C18.0588 91.727 18.7409 91.0451 18.7409 90.2035V82.3982C18.7409 79.8782 20.791 77.8279 23.3112 77.8279H100.689C103.209 77.8279 105.259 79.8782 105.259 82.3982V102.383C105.259 104.903 103.209 106.953 100.689 106.953H23.3112C20.791 106.953 18.7409 104.903 18.7409 102.383V97.3129C18.7409 96.4714 18.0588 95.7895 17.2174 95.7895C16.3761 95.7895 15.694 96.4714 15.694 97.3129V102.383C15.694 106.583 19.111 110 23.3112 110H100.689C104.889 110 108.306 106.583 108.306 102.383V82.3982C108.306 78.1978 104.889 74.7808 100.689 74.7808ZM40.9419 74.7808H28.34V65.0037H40.9419V74.7808ZM68.3639 74.7808H55.762V57.093C58.0546 58.123 60.8484 57.6219 62.625 55.6614L68.3639 49.3275V74.7808ZM80.137 74.7808H71.4108V45.9647L80.137 36.3339V74.7808ZM95.7859 74.7808H83.1839V32.9712L83.9666 32.1075H95.7859V74.7808ZM49.2321 89.3368C49.2321 86.6742 46.982 84.5081 44.2165 84.5081H40.8369C40.8363 84.5081 40.8355 84.5081 40.8349 84.5081C40.8342 84.5081 40.8334 84.5081 40.8328 84.5081C39.9915 84.5081 39.3094 85.19 39.3094 86.0315V98.7494C39.3094 99.591 39.9915 100.273 40.8328 100.273C41.6742 100.273 42.3563 99.591 42.3563 98.7494V94.9737L46.5652 99.7559C47.1228 100.389 48.086 100.447 48.7153 99.893C49.3468 99.3373 49.4084 98.3744 48.8524 97.7429L45.5502 93.9908C47.6702 93.4269 49.2321 91.5547 49.2321 89.3368ZM44.2165 91.1184C43.7877 91.1184 43.0505 91.1214 42.3752 91.1247C42.3717 90.4653 42.3668 88.2456 42.365 87.5547H44.2165C45.2837 87.5547 46.1852 88.3709 46.1852 89.3366C46.1852 90.3022 45.2837 91.1184 44.2165 91.1184ZM84.9983 98.7494V86.0315C84.9983 85.19 84.3162 84.5081 83.4748 84.5081C82.6335 84.5081 81.9514 85.19 81.9514 86.0315V98.7494C81.9514 99.591 82.6335 100.273 83.4748 100.273C84.3162 100.273 84.9983 99.5908 84.9983 98.7494ZM93.0067 100.273C93.848 100.273 94.5301 99.591 94.5301 98.7494V87.5549H96.5325C97.3739 87.5549 98.056 86.8731 98.056 86.0315C98.056 85.19 97.3739 84.5081 96.5325 84.5081H89.5091C88.6677 84.5081 87.9856 85.19 87.9856 86.0315C87.9856 86.8731 88.6677 87.5549 89.5091 87.5549H91.4832V98.7494C91.4832 99.5908 92.1653 100.273 93.0067 100.273ZM28.9908 98.7494V94.7403C29.7204 94.7365 30.5406 94.7328 31.0086 94.7328C33.8664 94.7328 36.1914 92.4393 36.1914 89.6203C36.1914 86.8014 33.8664 84.5079 31.0086 84.5079H27.4673C26.7887 84.5387 25.9136 85.0699 25.9439 86.0313V98.7492C25.9439 99.5908 26.626 100.273 27.4673 100.273C28.3087 100.273 28.9908 99.5908 28.9908 98.7494ZM31.0084 87.5547C32.1663 87.5547 33.1443 88.5007 33.1443 89.6203C33.1443 90.74 32.1663 91.6859 31.0084 91.6859C30.5437 91.6859 29.7336 91.6896 29.0068 91.6932C29.003 90.9425 28.9973 88.3406 28.9951 87.5547H31.0084ZM77.3585 87.6015C78.1998 87.6015 78.8819 86.9196 78.8819 86.078C78.8819 85.2365 78.1998 84.5546 77.3585 84.5546H72.2415C71.4002 84.5546 70.7181 85.2365 70.7181 86.078V98.7027C70.7181 99.5443 71.4002 100.226 72.2415 100.226C73.0829 100.226 73.765 99.5443 73.765 98.7027V93.7944H76.952C77.7934 93.7944 78.4755 93.1125 78.4755 92.2709C78.4755 91.4294 77.7934 90.7475 76.952 90.7475H73.765V87.6015H77.3585ZM67.5908 92.3904C67.5908 88.0441 64.0548 84.5079 59.7083 84.5079C55.3618 84.5079 51.826 88.0439 51.826 92.3904C51.826 96.7368 55.362 100.273 59.7083 100.273C64.0546 100.273 67.5908 96.7366 67.5908 92.3904ZM54.8729 92.3904C54.8729 89.7239 57.0421 87.5547 59.7083 87.5547C62.3745 87.5547 64.5439 89.7239 64.5439 92.3904C64.5439 95.0568 62.3747 97.226 59.7083 97.226C57.0421 97.226 54.8729 95.0568 54.8729 92.3904Z" fill="black"/>
</g>
<defs>
<filter id="filter0_d_8_8" x="0" y="0" width="127.998" height="130.97" filterUnits="userSpaceOnUse" color-interpolation-filters="sRGB">
<feFlood flood-opacity="0" result="BackgroundImageFix"/>
<feColorMatrix in="SourceAlpha" type="matrix" values="0 0 0 0 0 0 0 0 0 0 0 0 0 0 0 0 0 0 127 0" result="hardAlpha"/>
<feOffset dx="5" dy="8"/>
<feComposite in2="hardAlpha" operator="out"/>
<feColorMatrix type="matrix" values="0 0 0 0 0 0 0 0 0 0 0 0 0 0 0 0 0 0 1 0"/>
<feBlend mode="normal" in2="BackgroundImageFix" result="effect1_dropShadow_8_8"/>
<feBlend mode="normal" in="SourceGraphic" in2="effect1_dropShadow_8_8" result="shape"/>
</filter>
<clipPath id="clip0_8_8">
<rect width="104" height="104" fill="white" transform="translate(10 6)"/>
</clipPath>
</defs>
</svg>
