<svg width="130" height="136" viewBox="0 0 130 136" fill="none" xmlns="http://www.w3.org/2000/svg">
<g filter="url(#filter0_d_16_1072)">
<path d="M122.998 61.4849C122.998 95.4421 95.4706 122.97 61.5135 122.97H61.4849C27.5277 122.97 0 95.4422 0 61.485C0 27.5278 27.5277 0 61.4849 0H61.5135C95.4706 0 122.998 27.5277 122.998 61.4849Z" fill="#5D35EE"/>
<path d="M121.498 61.4849C121.498 94.6137 94.6422 121.47 61.5135 121.47H61.4849C28.3562 121.47 1.5 94.6138 1.5 61.485C1.5 28.3563 28.3562 1.5 61.4849 1.5H61.5135C94.6422 1.5 121.498 28.3562 121.498 61.4849Z" stroke="black" stroke-width="3"/>
</g>
<path d="M85.7516 23.0475V68.2385C85.7516 69.1986 86.5297 69.9767 87.4898 69.9767H95.4547C96.4148 69.9767 97.1929 69.1986 97.1929 68.2385V38.4893C97.1929 36.8727 98.5033 35.5623 100.12 35.5623C101.737 35.5623 103.047 36.8727 103.047 38.4893V68.2382C103.047 69.1983 103.825 69.9764 104.785 69.9764H112.75C113.71 69.9764 114.488 69.1983 114.488 68.2382V23.0475C114.488 22.0875 113.71 21.3093 112.75 21.3093H87.4901C86.5297 21.3093 85.7516 22.0877 85.7516 23.0475Z" fill="#9494FF"/>
<path d="M114.488 26.2347V23.0475C114.488 22.0875 113.71 21.3093 112.75 21.3093H87.4895C86.5294 21.3093 85.7513 22.0875 85.7513 23.0475V26.2347H114.488Z" fill="#D9D9FF"/>
<path d="M85.7516 64.7621V68.2382C85.7516 69.1983 86.5297 69.9764 87.4898 69.9764H95.4547C96.4148 69.9764 97.1929 69.1983 97.1929 68.2382V64.7621H85.7516Z" fill="#D9D9FF"/>
<path d="M103.047 64.7621V68.2382C103.047 69.1983 103.825 69.9764 104.785 69.9764H112.75C113.71 69.9764 114.488 69.1983 114.488 68.2382V64.7621H103.047Z" fill="#D9D9FF"/>
<path d="M107.601 26.2347C107.676 29.1914 109.277 31.8993 111.848 33.3817L114.487 34.9043V26.2347H107.601Z" fill="#6C6CFF"/>
<path d="M92.6375 26.2347C92.5616 29.1914 90.9615 31.8993 88.3901 33.3817L85.7516 34.9043V26.2347H92.6375Z" fill="#6C6CFF"/>
<path d="M94.6361 26.7893H92.985C92.7931 26.7893 92.6372 26.6337 92.6372 26.4416V21.3093H94.9836V26.4416C94.9839 26.6337 94.8283 26.7893 94.6361 26.7893Z" fill="#B3B3FF"/>
<path d="M107.253 26.7893H105.602C105.41 26.7893 105.254 26.6337 105.254 26.4416V21.3093H107.601V26.4416C107.601 26.6337 107.445 26.7893 107.253 26.7893Z" fill="#B3B3FF"/>
<path d="M7.51837 84.0164V111.645C7.51837 112.605 8.2965 113.383 9.25655 113.383H17.2215C18.1816 113.383 18.9597 112.605 18.9597 111.645V99.4582C18.9597 97.8416 20.2701 96.5311 21.8867 96.5311C23.5033 96.5311 24.8138 97.8416 24.8138 99.4582V111.645C24.8138 112.605 25.5919 113.383 26.552 113.383H34.5169C35.477 113.383 36.2551 112.605 36.2551 111.645V84.0164C36.2551 83.0563 35.477 82.2782 34.5169 82.2782H9.25655C8.29679 82.2785 7.51837 83.0566 7.51837 84.0164Z" fill="#D875E6"/>
<path d="M36.2548 87.204V84.0168C36.2548 83.0567 35.4767 82.2786 34.5166 82.2786H9.25655C8.2965 82.2786 7.51837 83.0567 7.51837 84.0168V87.204H36.2548Z" fill="#FFD9D9"/>
<path d="M7.51837 108.169V111.645C7.51837 112.605 8.2965 113.383 9.25655 113.383H17.2215C18.1816 113.383 18.9597 112.605 18.9597 111.645V108.169H7.51837Z" fill="#FFD9D9"/>
<path d="M24.8135 108.169V111.645C24.8135 112.605 25.5916 113.383 26.5517 113.383H34.5166C35.4767 113.383 36.2548 112.605 36.2548 111.645V108.169H24.8135Z" fill="#FFD9D9"/>
<path d="M29.3677 87.2039C29.4436 90.1605 31.0438 92.8684 33.6151 94.3508L36.2536 95.8734V87.2039H29.3677Z" fill="#A23AB1"/>
<path d="M14.4046 87.2039C14.3287 90.1605 12.7285 92.8684 10.1572 94.3508L7.51868 95.8734V87.2039H14.4046Z" fill="#A23AB1"/>
<path d="M16.4032 87.7585H14.752C14.5602 87.7585 14.4043 87.603 14.4043 87.4108V82.2786H16.7507V87.4108C16.751 87.6027 16.5951 87.7585 16.4032 87.7585Z" fill="#FF9494"/>
<path d="M29.0199 87.7585H27.3687C27.1769 87.7585 27.021 87.603 27.021 87.4108V82.2786H29.3674V87.4108C29.3677 87.6027 29.2121 87.7585 29.0199 87.7585Z" fill="#FF9494"/>
<path d="M71.7834 18.2936L63.5082 26.5688C62.9829 27.094 62.1312 27.094 61.6059 26.5688L56.8566 21.8194V50.601C56.8566 51.3439 56.2543 51.946 55.5116 51.946H23.9847C23.2417 51.946 22.6396 51.3437 22.6396 50.601V21.8194L17.8903 26.5688C17.365 27.094 16.5134 27.094 15.9881 26.5688L7.71288 18.2936C7.18759 17.7683 7.18759 16.9166 7.71288 16.3913L22.2456 1.85859C22.4978 1.60664 22.84 1.46484 23.1969 1.46484H30.1385C30.6702 1.46484 31.1612 1.77422 31.3675 2.26465C32.7424 5.53477 35.9773 7.83193 39.7484 7.83193C43.5195 7.83193 46.7545 5.53477 48.1294 2.26465C48.3356 1.77422 48.8266 1.46484 49.3584 1.46484H56.3C56.6568 1.46484 56.9987 1.60664 57.2513 1.85889L71.784 16.3916C72.3087 16.9166 72.3087 17.7683 71.7834 18.2936Z" fill="#FF9494"/>
<path d="M75.3387 87.0524L80.2839 82.1072L94.739 96.5623L89.7938 101.507L75.3387 87.0524Z" fill="#4D4DFF" stroke="#0000CC" stroke-width="9.99849" stroke-miterlimit="10" stroke-linecap="round" stroke-linejoin="round"/>
<path d="M80.3035 82.106L85.7515 87.554C85.0267 88.4537 84.2448 89.3232 83.4099 90.1582C82.5749 90.9932 81.7054 91.7751 80.8057 92.4999L75.3576 87.0519L80.3035 82.106Z" fill="#2C27FF"/>
<path d="M57.3887 96.9121C75.4898 96.9121 90.1637 82.2382 90.1637 64.1371C90.1637 46.0359 75.4898 31.3621 57.3887 31.3621C39.2876 31.3621 24.6137 46.0359 24.6137 64.1371C24.6137 82.2382 39.2876 96.9121 57.3887 96.9121Z" fill="#FF9D33"/>
<path d="M57.3887 89.3687C71.3237 89.3687 82.6203 78.0721 82.6203 64.137C82.6203 50.202 71.3237 38.9054 57.3887 38.9054C43.4536 38.9054 32.157 50.202 32.157 64.137C32.157 78.0721 43.4536 89.3687 57.3887 89.3687Z" fill="#D9D9FF"/>
<path d="M82.3995 60.8121L54.0629 89.1457C51.2853 88.7827 48.5601 87.9545 46.0078 86.6637L79.9142 52.7572C81.2082 55.3093 82.0368 58.0344 82.3995 60.8121Z" fill="#EBEBFF"/>
<path d="M78.5768 50.4299L43.6839 85.323C42.2176 84.3776 40.8301 83.2594 39.5481 81.9773C37.9558 80.3851 36.6181 78.6316 35.5441 76.7701L70.0212 42.293C71.8827 43.3673 73.6391 44.7047 75.2314 46.297C76.5134 47.579 77.6284 48.9665 78.5768 50.4299Z" fill="#EBEBFF"/>
<path d="M65.9733 40.408V71.5807C65.9733 72.5086 65.2209 73.255 64.296 73.255H33.8551C30.3632 64.2222 32.2569 53.5854 39.5451 46.2972C46.69 39.152 57.0603 37.1882 65.9733 40.408Z" fill="#FF6C6C"/>
<path d="M126.942 127.226L120.478 133.69C119.427 134.741 117.724 134.741 116.673 133.69L87.3096 104.327C86.259 103.276 86.259 101.573 87.3096 100.522L93.7737 94.058C94.8243 93.0074 96.5276 93.0074 97.5782 94.058L126.942 123.422C127.992 124.473 127.992 126.176 126.942 127.226Z" fill="#FF9D33"/>
<path d="M91.8347 108.873L102.102 98.6064L106.848 103.353L96.5815 113.62L91.8347 108.873Z" fill="#FFC599"/>
<path d="M76.2658 45.2598C71.2236 40.2176 64.5196 37.4408 57.3887 37.4408C50.2578 37.4408 43.5538 40.2178 38.5116 45.2598C33.4693 50.3018 30.6925 57.0061 30.6925 64.137C30.6925 71.2678 33.4696 77.9719 38.5116 83.0141C43.5535 88.0564 50.2578 90.8332 57.3887 90.8332C64.5196 90.8332 71.2236 88.0561 76.2658 83.0141C81.3081 77.9721 84.0852 71.2678 84.0852 64.137C84.0852 57.0061 81.3081 50.3021 76.2658 45.2598ZM74.194 80.9426C69.7051 85.4314 63.7367 87.9038 57.3884 87.9038C51.0401 87.9038 45.0717 85.4317 40.5828 80.9426C36.094 76.4534 33.6216 70.4853 33.6216 64.137C33.6216 57.7886 36.0937 51.8203 40.5828 47.3314C45.072 42.8426 51.0401 40.3702 57.3884 40.3702C63.7367 40.3702 69.7051 42.8423 74.194 47.3314C78.6831 51.8203 81.1552 57.7886 81.1552 64.137C81.1552 70.4853 78.6831 76.4534 74.194 80.9426Z" fill="black"/>
<path d="M127.978 122.386L105.657 100.066C105.085 99.4937 104.158 99.4937 103.586 100.066C103.014 100.638 103.014 101.565 103.586 102.137L125.906 124.458C126.384 124.935 126.384 125.713 125.906 126.19L119.442 132.654C118.964 133.132 118.187 133.132 117.709 132.654L88.3455 103.291C87.8677 102.813 87.8677 102.035 88.3455 101.558L94.8093 95.0936C95.2871 94.6157 96.0644 94.6157 96.5422 95.0936C97.1144 95.6654 98.0416 95.6654 98.6138 95.0936C99.1859 94.5214 99.1859 93.5938 98.6138 93.022C97.0871 91.4956 94.659 91.4089 93.0283 92.7592L84.853 84.5842C87.8255 80.5972 89.8186 76.1057 90.8296 71.4413H95.4541C97.2201 71.4413 98.6571 70.0046 98.6571 68.2383V38.4894C98.6571 37.6831 99.3131 37.0271 100.119 37.0271C100.926 37.0271 101.582 37.6831 101.582 38.4894V68.2383C101.582 70.0043 103.018 71.4413 104.785 71.4413H112.75C114.516 71.4413 115.953 70.0046 115.953 68.2383V23.0476C115.953 21.2815 114.516 19.8445 112.75 19.8445H87.4895C85.7234 19.8445 84.2864 21.2812 84.2864 23.0476V42.9513C83.46 41.9036 82.5658 40.8923 81.5996 39.9258C75.1613 33.4875 66.776 30.1553 58.3215 29.9268V25.3559L60.57 27.6044C61.6657 28.6998 63.4481 28.6998 64.5438 27.6044L72.819 19.3292C73.9147 18.2335 73.9147 16.4508 72.819 15.3554L58.2863 0.822656C57.7555 0.29209 57.05 0 56.2997 0H49.3581C48.2246 0 47.2121 0.665918 46.7788 1.69687C45.5861 4.53398 42.8264 6.36709 39.7481 6.36709C36.6699 6.36709 33.9104 4.53398 32.7175 1.69687C32.2842 0.665918 31.2717 0 30.1382 0H23.1966C22.4463 0 21.7408 0.29209 21.2097 0.822949L6.67725 15.3557C5.58154 16.4514 5.58154 18.2341 6.67725 19.3295L14.9524 27.6047C16.0481 28.7001 17.8306 28.7001 18.9263 27.6047L21.1748 25.3562V50.6013C21.1748 52.1508 22.4354 53.4111 23.9847 53.4111H24.8776C21.9254 62.4094 22.7917 72.3979 27.4801 80.8137H9.25654C7.49053 80.8137 6.05352 82.2504 6.05352 84.0167V111.646C6.05352 113.412 7.49023 114.849 9.25654 114.849H17.2218C18.9878 114.849 20.4248 113.412 20.4248 111.646V99.4588C20.4248 98.6525 21.0808 97.9966 21.887 97.9966C22.6933 97.9966 23.3492 98.6525 23.3492 99.4588V111.646C23.3492 113.412 24.7859 114.849 26.5522 114.849H34.5172C36.2832 114.849 37.7202 113.412 37.7202 111.646V99.3299C37.7202 98.521 37.0643 97.865 36.2554 97.865C35.4465 97.865 34.7905 98.521 34.7905 99.3299V111.646C34.7905 111.796 34.6681 111.919 34.5172 111.919H26.5522C26.4017 111.919 26.2789 111.797 26.2789 111.646V99.4588C26.2789 97.0371 24.3087 95.0669 21.887 95.0669C19.4653 95.0669 17.4951 97.0371 17.4951 99.4588V111.646C17.4951 111.796 17.3727 111.919 17.2218 111.919H9.25654C9.10596 111.919 8.9832 111.797 8.9832 111.646V84.0167C8.9832 83.8661 9.10566 83.7434 9.25654 83.7434H29.3146C30.4464 85.362 31.7334 86.9042 33.1774 88.3482C39.8527 95.0232 48.6207 98.3607 57.3887 98.3607C64.5916 98.3607 71.7934 96.1066 77.8361 91.602L86.0114 99.7772C84.6611 101.408 84.7478 103.836 86.2742 105.363L115.638 134.726C116.448 135.536 117.512 135.941 118.576 135.941C119.64 135.941 120.704 135.536 121.514 134.726L127.978 128.262C129.598 126.642 129.598 124.006 127.978 122.386ZM87.2164 23.0476C87.2164 22.897 87.3389 22.7742 87.4898 22.7742H112.75C112.901 22.7742 113.023 22.8967 113.023 23.0476V68.2386C113.023 68.3892 112.901 68.5119 112.75 68.5119H104.785C104.634 68.5119 104.512 68.3895 104.512 68.2386V38.4894C104.512 36.0677 102.541 34.0975 100.12 34.0975C97.698 34.0975 95.7277 36.0677 95.7277 38.4894V68.2383C95.7277 68.3889 95.6053 68.5116 95.4544 68.5116H91.3317C92.2543 61.2894 90.8829 53.8283 87.2161 47.3197V23.0476H87.2164ZM24.1045 50.4814V21.8194C24.1045 21.2271 23.7477 20.6927 23.2004 20.4659C22.6531 20.2395 22.0227 20.3646 21.604 20.7835L16.9396 25.4481L8.8335 17.3426L23.2464 2.92969H30.0582C31.7311 6.80098 35.5229 9.29678 39.7481 9.29678C43.9733 9.29678 47.7652 6.80098 49.4381 2.92969H56.2502L70.6628 17.3426L62.5572 25.4481L57.8929 20.7835C57.4739 20.3646 56.844 20.2395 56.2965 20.4659C55.7492 20.6927 55.3924 21.2268 55.3924 21.8194V29.973C47.3015 30.4415 39.3459 33.7573 33.1774 39.9255C30.0474 43.0556 27.6512 46.6462 25.9889 50.4812L24.1045 50.4814ZM35.249 86.2767C23.0413 74.0689 23.0413 54.2054 35.249 41.9974C41.3536 35.8928 49.3698 32.8415 57.3887 32.8415C65.4055 32.8415 73.4252 35.8942 79.5283 41.9974C91.736 54.2051 91.736 74.0686 79.5283 86.2767C67.3203 98.4844 47.457 98.4844 35.249 86.2767ZM81.5999 88.3482C82.0824 87.8657 82.5456 87.3709 82.9933 86.8673L90.9433 94.817L88.0689 97.6913L80.1192 89.7416C80.6226 89.2939 81.1174 88.8308 81.5999 88.3482Z" fill="black"/>
<path d="M57.3775 67.0934H48.5964C47.7881 67.0934 47.133 66.438 47.133 65.63V62.3127C47.133 61.5044 47.7884 60.8494 48.5964 60.8494H57.3775C58.1858 60.8494 58.8409 61.5047 58.8409 62.3127V65.63C58.8409 66.4383 58.1858 67.0934 57.3775 67.0934Z" fill="#4D4DFF"/>
<path d="M65.9733 66.6985V71.5808C65.9733 72.5086 65.2209 73.2551 64.296 73.2551H59.4166L65.9733 66.6985Z" fill="#FF9494"/>
<path d="M65.9733 46.3409V63.0337L55.7522 73.2548H39.0594L65.9733 46.3409Z" fill="#FF9494"/>
<path d="M58.8401 62.3136V65.63C58.8401 66.4377 58.1844 67.0934 57.3767 67.0934H48.5955C47.7878 67.0934 47.1321 66.4377 47.1321 65.63V65.1821L51.464 60.8502H57.3767C58.1844 60.8502 58.8401 61.5059 58.8401 62.3136Z" fill="#6C6CFF"/>
<path d="M114.647 92.2969C114.272 92.2969 113.897 92.1539 113.611 91.868C113.038 91.2958 113.038 90.3683 113.611 89.7964L116.538 86.8693C117.11 86.2975 118.037 86.2975 118.609 86.8693C119.181 87.4415 119.181 88.369 118.609 88.9409L115.682 91.868C115.397 92.1539 115.022 92.2969 114.647 92.2969Z" fill="#FF9D33"/>
<path d="M52.9871 116.246C52.6121 116.246 52.2374 116.103 51.9512 115.817C51.379 115.245 51.379 114.318 51.9512 113.746L54.8782 110.819C55.4504 110.247 56.3776 110.247 56.9498 110.819C57.522 111.391 57.522 112.318 56.9498 112.89L54.0227 115.817C53.7368 116.103 53.3618 116.246 52.9871 116.246Z" fill="#FF9D33"/>
<path d="M11.7755 41.7656C11.4005 41.7656 11.0258 41.6227 10.7396 41.3367C10.1674 40.7646 10.1674 39.837 10.7396 39.2651L13.6666 36.3381C14.2391 35.7662 15.1663 35.7665 15.7382 36.3381C16.3104 36.9103 16.3104 37.8378 15.7382 38.4097L12.8111 41.3367C12.5252 41.6227 12.1502 41.7656 11.7755 41.7656Z" fill="#6C6CFF"/>
<path d="M7.31917 53.0203C6.94417 53.0203 6.56946 52.8773 6.28323 52.5914L4.39211 50.7L2.50071 52.5914C1.92854 53.1632 1.00129 53.1632 0.429126 52.5914C-0.143042 52.0192 -0.143042 51.0917 0.429126 50.5198L3.35618 47.5927C3.63098 47.3179 4.00335 47.1638 4.39211 47.1638C4.78059 47.1638 5.15325 47.3182 5.42805 47.5927L8.3551 50.5198C8.92727 51.0919 8.92727 52.0195 8.3551 52.5914C8.06887 52.8773 7.69387 53.0203 7.31917 53.0203Z" fill="#FF6C6C"/>
<path d="M92.1216 12.8707C91.7466 12.8707 91.3719 12.7278 91.0857 12.4418L89.1945 10.5504L87.3031 12.4418C86.731 13.014 85.8037 13.0137 85.2316 12.4418C84.6594 11.8697 84.6594 10.9421 85.2316 10.3703L88.1586 7.4432C88.7311 6.87133 89.6583 6.87162 90.2302 7.4432L93.1572 10.3703C93.7294 10.9424 93.7294 11.87 93.1572 12.4418C92.8713 12.7275 92.4966 12.8707 92.1216 12.8707Z" fill="#FF6C6C"/>
<defs>
<filter id="filter0_d_16_1072" x="0" y="0" width="127.998" height="130.97" filterUnits="userSpaceOnUse" color-interpolation-filters="sRGB">
<feFlood flood-opacity="0" result="BackgroundImageFix"/>
<feColorMatrix in="SourceAlpha" type="matrix" values="0 0 0 0 0 0 0 0 0 0 0 0 0 0 0 0 0 0 127 0" result="hardAlpha"/>
<feOffset dx="5" dy="8"/>
<feComposite in2="hardAlpha" operator="out"/>
<feColorMatrix type="matrix" values="0 0 0 0 0 0 0 0 0 0 0 0 0 0 0 0 0 0 1 0"/>
<feBlend mode="normal" in2="BackgroundImageFix" result="effect1_dropShadow_16_1072"/>
<feBlend mode="normal" in="SourceGraphic" in2="effect1_dropShadow_16_1072" result="shape"/>
</filter>
</defs>
</svg>
