<svg width="128" height="24" viewBox="0 0 128 24" fill="none" xmlns="http://www.w3.org/2000/svg">
<g clip-path="url(#clip0_16_939)">
<path d="M82.5721 13.3073V22.4018H77.9266V13.2755L70.0452 0.498047H75.2129L80.4148 9.02791L85.7794 0.498047H90.522L82.5749 13.3102L82.5721 13.3073Z" fill="white"/>
<path d="M90.7503 11.2833C90.7503 3.81609 94.7395 0.0983887 101.217 0.0983887C107.694 0.0983887 111.781 3.91453 111.781 11.1501C111.781 18.3858 107.595 22.8012 101.117 22.8012C94.6396 22.8012 90.7474 18.8519 90.7474 11.2833H90.7503ZM107.004 11.2167C107.004 6.30613 104.878 3.98112 101.248 3.98112C97.6187 3.98112 95.5242 6.30324 95.5242 11.2833C95.5242 16.2634 97.6843 18.8838 101.183 18.8838C104.681 18.8838 107.004 16.2287 107.004 11.2167Z" fill="white"/>
<path d="M128 18.5856V22.4018H115.211V0.498047H119.856V18.5856H128Z" fill="white"/>
<path d="M27.7618 13.3999C27.7618 15.9073 25.7587 17.9398 23.2875 17.9398C20.8164 17.9398 18.8132 15.9073 18.8132 13.3999V0.344482H14.0022V13.3999C14.0022 18.6029 18.1597 22.8186 23.2847 22.8186C28.4124 22.8186 32.5671 18.6 32.5671 13.3999V0.344482H27.7561V13.3999H27.7618Z" fill="white"/>
<path d="M9.19687 5.21455V14.1237C9.19687 18.7245 6.25775 22.6217 2.18294 23.9999L0.659161 19.3702C2.82212 18.6347 4.38585 16.5674 4.38585 14.1237V4.24459H0V0.344482H9.19687V5.21455Z" fill="white"/>
<path d="M66.3556 4.24477V0.344658H61.9669L57.1616 0.338867V14.1239C57.1616 18.7247 60.1007 22.6219 64.1755 24.003L65.6993 19.3704C63.5335 18.6378 61.9726 16.5676 61.9726 14.1239V4.24477H66.3584H66.3556Z" fill="white"/>
<path d="M41.5471 6.01665C41.5471 4.58632 42.9225 3.92038 44.5291 3.92038C46.6264 3.92038 48.1016 4.88455 48.4926 7.14586L52.7529 6.01665C52.2935 1.39558 48.5268 0 45.0855 0C40.8908 0 36.7618 2.06153 36.7618 6.68259C36.7618 14.4973 48.5354 12.844 48.5354 16.8657C48.5354 18.1629 47.2913 18.9273 45.3566 18.9273C42.7684 18.9273 41.0649 17.7315 40.6711 15.7365L36.1483 16.9323C36.7704 20.789 39.9492 22.8158 44.7003 22.8158C49.9108 22.8158 53.3179 20.1231 53.3179 16.0666C53.3179 8.58487 41.5443 10.1368 41.5443 6.01665H41.5471Z" fill="white"/>
</g>
<defs>
<clipPath id="clip0_16_939">
<rect width="128" height="24" fill="white"/>
</clipPath>
</defs>
</svg>
