<svg width="117" height="54" viewBox="0 0 117 54" fill="none" xmlns="http://www.w3.org/2000/svg">
<g filter="url(#filter0_d_16_973)">
<path d="M55.5308 1.92032L28.9565 22.4564L2.4369 1.80275L-24.1374 22.3388L-46.2644 5.11438L-55.0861 18.2041L-24.1921 42.287L2.40045 21.7509L28.9201 42.4045L55.4944 21.8685L82.014 42.5221L112.999 18.596L104.214 5.4475L82.0505 22.5739L55.5308 1.92032Z" fill="#DBFE87"/>
<path d="M-57 18.5373L-46.5562 3.05687L-24.1375 20.536L2.45502 -2.164e-05L28.9564 20.6536L55.549 0.117545L82.0504 20.7712L104.542 3.40958L114.913 18.9292L81.9957 44.3445L55.4943 23.6909L28.9018 44.2269L2.40035 23.5733L-24.1922 44.1093L-57 18.5373ZM-45.9547 7.15232L-53.1724 17.871L-24.174 40.4646L2.41857 19.9286L28.92 40.6018L55.5125 20.0657L82.0139 40.7193L111.085 18.2433L103.904 7.48544L82.0321 24.3767L55.5307 3.72311L28.9382 24.2591L2.4368 3.60554L-24.1557 24.1416L-45.9547 7.15232Z" fill="black"/>
</g>
<defs>
<filter id="filter0_d_16_973" x="-57" y="0" width="173.913" height="53.3445" filterUnits="userSpaceOnUse" color-interpolation-filters="sRGB">
<feFlood flood-opacity="0" result="BackgroundImageFix"/>
<feColorMatrix in="SourceAlpha" type="matrix" values="0 0 0 0 0 0 0 0 0 0 0 0 0 0 0 0 0 0 127 0" result="hardAlpha"/>
<feOffset dx="2" dy="9"/>
<feColorMatrix type="matrix" values="0 0 0 0 0 0 0 0 0 0 0 0 0 0 0 0 0 0 1 0"/>
<feBlend mode="normal" in2="BackgroundImageFix" result="effect1_dropShadow_16_973"/>
<feBlend mode="normal" in="SourceGraphic" in2="effect1_dropShadow_16_973" result="shape"/>
</filter>
</defs>
</svg>
