<svg width="271" height="268" viewBox="0 0 271 268" fill="none" xmlns="http://www.w3.org/2000/svg">
<mask id="mask0_16_420" style="mask-type:luminance" maskUnits="userSpaceOnUse" x="33" y="33" width="204" height="202">
<path d="M226.554 177.607C250.797 127.684 229.56 67.7627 179.12 43.7687C128.68 19.7747 68.1376 40.7941 43.8951 90.7169C19.6525 140.64 40.8896 200.561 91.3295 224.555C141.769 248.549 202.312 227.53 226.554 177.607Z" fill="white"/>
</mask>
<g mask="url(#mask0_16_420)">
<path d="M33.5612 33.8809C34.5952 33.8809 35.4334 33.0512 35.4334 32.0278C35.4334 31.0044 34.5952 30.1748 33.5612 30.1748C32.5272 30.1748 31.6889 31.0044 31.6889 32.0278C31.6889 33.0512 32.5272 33.8809 33.5612 33.8809Z" fill="white"/>
<path d="M49.1438 32.0278C49.1438 33.0541 48.3085 33.8809 47.2716 33.8809C46.2347 33.8809 45.3994 33.0541 45.3994 32.0278C45.3994 31.0015 46.2347 30.1748 47.2716 30.1748C48.3085 30.1748 49.1438 31.0015 49.1438 32.0278Z" fill="white"/>
<path d="M62.8542 32.0278C62.8542 33.0541 62.0189 33.8809 60.982 33.8809C59.9451 33.8809 59.1098 33.0541 59.1098 32.0278C59.1098 31.0015 59.9451 30.1748 60.982 30.1748C62.0189 30.1748 62.8542 31.0015 62.8542 32.0278Z" fill="white"/>
<path d="M74.7212 33.8809C75.7552 33.8809 76.5934 33.0512 76.5934 32.0278C76.5934 31.0044 75.7552 30.1748 74.7212 30.1748C73.6872 30.1748 72.849 31.0044 72.849 32.0278C72.849 33.0512 73.6872 33.8809 74.7212 33.8809Z" fill="white"/>
<path d="M90.3039 32.0278C90.3039 33.0541 89.4686 33.8809 88.4317 33.8809C87.3947 33.8809 86.5594 33.0541 86.5594 32.0278C86.5594 31.0015 87.3947 30.1748 88.4317 30.1748C89.4686 30.1748 90.3039 31.0015 90.3039 32.0278Z" fill="white"/>
<path d="M102.142 33.8809C103.176 33.8809 104.014 33.0512 104.014 32.0278C104.014 31.0044 103.176 30.1748 102.142 30.1748C101.108 30.1748 100.27 31.0044 100.27 32.0278C100.27 33.0512 101.108 33.8809 102.142 33.8809Z" fill="white"/>
<path d="M115.881 33.8809C116.915 33.8809 117.754 33.0512 117.754 32.0278C117.754 31.0044 116.915 30.1748 115.881 30.1748C114.847 30.1748 114.009 31.0044 114.009 32.0278C114.009 33.0512 114.847 33.8809 115.881 33.8809Z" fill="white"/>
<path d="M131.435 32.0278C131.435 33.0541 130.6 33.8809 129.563 33.8809C128.526 33.8809 127.691 33.0541 127.691 32.0278C127.691 31.0015 128.526 30.1748 129.563 30.1748C130.6 30.1748 131.435 31.0015 131.435 32.0278Z" fill="white"/>
<path d="M143.302 33.8809C144.336 33.8809 145.174 33.0512 145.174 32.0278C145.174 31.0044 144.336 30.1748 143.302 30.1748C142.268 30.1748 141.43 31.0044 141.43 32.0278C141.43 33.0512 142.268 33.8809 143.302 33.8809Z" fill="white"/>
<path d="M157.013 33.8809C158.047 33.8809 158.885 33.0512 158.885 32.0278C158.885 31.0044 158.047 30.1748 157.013 30.1748C155.979 30.1748 155.14 31.0044 155.14 32.0278C155.14 33.0512 155.979 33.8809 157.013 33.8809Z" fill="white"/>
<path d="M172.595 32.0278C172.595 33.0541 171.76 33.8809 170.723 33.8809C169.686 33.8809 168.851 33.0541 168.851 32.0278C168.851 31.0015 169.686 30.1748 170.723 30.1748C171.76 30.1748 172.595 31.0015 172.595 32.0278Z" fill="white"/>
<path d="M184.462 33.8809C185.496 33.8809 186.335 33.0512 186.335 32.0278C186.335 31.0044 185.496 30.1748 184.462 30.1748C183.428 30.1748 182.59 31.0044 182.59 32.0278C182.59 33.0512 183.428 33.8809 184.462 33.8809Z" fill="white"/>
<path d="M198.173 33.8809C199.207 33.8809 200.045 33.0512 200.045 32.0278C200.045 31.0044 199.207 30.1748 198.173 30.1748C197.139 30.1748 196.3 31.0044 196.3 32.0278C196.3 33.0512 197.139 33.8809 198.173 33.8809Z" fill="white"/>
<path d="M211.912 33.8809C212.946 33.8809 213.784 33.0512 213.784 32.0278C213.784 31.0044 212.946 30.1748 211.912 30.1748C210.878 30.1748 210.04 31.0044 210.04 32.0278C210.04 33.0512 210.878 33.8809 211.912 33.8809Z" fill="white"/>
<path d="M225.622 33.8809C226.656 33.8809 227.495 33.0512 227.495 32.0278C227.495 31.0044 226.656 30.1748 225.622 30.1748C224.588 30.1748 223.75 31.0044 223.75 32.0278C223.75 33.0512 224.588 33.8809 225.622 33.8809Z" fill="white"/>
<path d="M40.6756 42.0059C41.7096 42.0059 42.5478 41.1762 42.5478 40.1528C42.5478 39.1294 41.7096 38.2998 40.6756 38.2998C39.6416 38.2998 38.8034 39.1294 38.8034 40.1528C38.8034 41.1762 39.6416 42.0059 40.6756 42.0059Z" fill="white"/>
<path d="M54.4148 42.0059C55.4488 42.0059 56.287 41.1762 56.287 40.1528C56.287 39.1294 55.4488 38.2998 54.4148 38.2998C53.3808 38.2998 52.5426 39.1294 52.5426 40.1528C52.5426 41.1762 53.3808 42.0059 54.4148 42.0059Z" fill="white"/>
<path d="M69.9687 40.1528C69.9687 41.1791 69.1334 42.0059 68.0965 42.0059C67.0595 42.0059 66.2242 41.1791 66.2242 40.1528C66.2242 39.1265 67.0595 38.2998 68.0965 38.2998C69.1334 38.2998 69.9687 39.1265 69.9687 40.1528Z" fill="white"/>
<path d="M83.7079 40.1528C83.7079 41.1791 82.8726 42.0059 81.8357 42.0059C80.7988 42.0059 79.9635 41.1791 79.9635 40.1528C79.9635 39.1265 80.7988 38.2998 81.8357 38.2998C82.8726 38.2998 83.7079 39.1265 83.7079 40.1528Z" fill="white"/>
<path d="M95.5461 42.0059C96.5801 42.0059 97.4183 41.1762 97.4183 40.1528C97.4183 39.1294 96.5801 38.2998 95.5461 38.2998C94.5121 38.2998 93.6739 39.1294 93.6739 40.1528C93.6739 41.1762 94.5121 42.0059 95.5461 42.0059Z" fill="white"/>
<path d="M109.285 42.0059C110.319 42.0059 111.158 41.1762 111.158 40.1528C111.158 39.1294 110.319 38.2998 109.285 38.2998C108.251 38.2998 107.413 39.1294 107.413 40.1528C107.413 41.1762 108.251 42.0059 109.285 42.0059Z" fill="white"/>
<path d="M124.868 40.1528C124.868 41.1791 124.033 42.0059 122.996 42.0059C121.959 42.0059 121.124 41.1791 121.124 40.1528C121.124 39.1265 121.959 38.2998 122.996 38.2998C124.033 38.2998 124.868 39.1265 124.868 40.1528Z" fill="white"/>
<path d="M136.706 42.0059C137.74 42.0059 138.578 41.1762 138.578 40.1528C138.578 39.1294 137.74 38.2998 136.706 38.2998C135.672 38.2998 134.834 39.1294 134.834 40.1528C134.834 41.1762 135.672 42.0059 136.706 42.0059Z" fill="white"/>
<path d="M150.445 42.0059C151.479 42.0059 152.318 41.1762 152.318 40.1528C152.318 39.1294 151.479 38.2998 150.445 38.2998C149.411 38.2998 148.573 39.1294 148.573 40.1528C148.573 41.1762 149.411 42.0059 150.445 42.0059Z" fill="white"/>
<path d="M164.156 42.0059C165.19 42.0059 166.028 41.1762 166.028 40.1528C166.028 39.1294 165.19 38.2998 164.156 38.2998C163.122 38.2998 162.284 39.1294 162.284 40.1528C162.284 41.1762 163.122 42.0059 164.156 42.0059Z" fill="white"/>
<path d="M177.866 42.0059C178.9 42.0059 179.739 41.1762 179.739 40.1528C179.739 39.1294 178.9 38.2998 177.866 38.2998C176.832 38.2998 175.994 39.1294 175.994 40.1528C175.994 41.1762 176.832 42.0059 177.866 42.0059Z" fill="white"/>
<path d="M191.577 42.0059C192.611 42.0059 193.449 41.1762 193.449 40.1528C193.449 39.1294 192.611 38.2998 191.577 38.2998C190.543 38.2998 189.704 39.1294 189.704 40.1528C189.704 41.1762 190.543 42.0059 191.577 42.0059Z" fill="white"/>
<path d="M205.316 42.0059C206.35 42.0059 207.188 41.1762 207.188 40.1528C207.188 39.1294 206.35 38.2998 205.316 38.2998C204.282 38.2998 203.444 39.1294 203.444 40.1528C203.444 41.1762 204.282 42.0059 205.316 42.0059Z" fill="white"/>
<path d="M219.026 42.0059C220.06 42.0059 220.899 41.1762 220.899 40.1528C220.899 39.1294 220.06 38.2998 219.026 38.2998C217.992 38.2998 217.154 39.1294 217.154 40.1528C217.154 41.1762 217.992 42.0059 219.026 42.0059Z" fill="white"/>
<path d="M234.609 40.1528C234.609 41.1791 233.774 42.0059 232.737 42.0059C231.7 42.0059 230.865 41.1791 230.865 40.1528C230.865 39.1265 231.7 38.2998 232.737 38.2998C233.774 38.2998 234.609 39.1265 234.609 40.1528Z" fill="white"/>
<path d="M35.4046 48.8193C35.4046 49.8456 34.5693 50.6724 33.5323 50.6724C32.4954 50.6724 31.6601 49.8456 31.6601 48.8193C31.6601 47.793 32.4954 46.9663 33.5323 46.9663C34.5693 46.9663 35.4046 47.793 35.4046 48.8193Z" fill="white"/>
<path d="M49.1438 48.8193C49.1438 49.8456 48.3085 50.6724 47.2716 50.6724C46.2347 50.6724 45.3994 49.8456 45.3994 48.8193C45.3994 47.793 46.2347 46.9663 47.2716 46.9663C48.3085 46.9663 49.1438 47.793 49.1438 48.8193Z" fill="white"/>
<path d="M62.8542 48.8193C62.8542 49.8456 62.0189 50.6724 60.982 50.6724C59.9451 50.6724 59.1098 49.8456 59.1098 48.8193C59.1098 47.793 59.9451 46.9663 60.982 46.9663C62.0189 46.9663 62.8542 47.793 62.8542 48.8193Z" fill="white"/>
<path d="M76.5647 48.8193C76.5647 49.8456 75.7294 50.6724 74.6924 50.6724C73.6555 50.6724 72.8202 49.8456 72.8202 48.8193C72.8202 47.793 73.6555 46.9663 74.6924 46.9663C75.7294 46.9663 76.5647 47.793 76.5647 48.8193Z" fill="white"/>
<path d="M90.3039 48.8193C90.3039 49.8456 89.4686 50.6724 88.4317 50.6724C87.3947 50.6724 86.5594 49.8456 86.5594 48.8193C86.5594 47.793 87.3947 46.9663 88.4317 46.9663C89.4686 46.9663 90.3039 47.793 90.3039 48.8193Z" fill="white"/>
<path d="M104.014 48.8193C104.014 49.8456 103.179 50.6724 102.142 50.6724C101.105 50.6724 100.27 49.8456 100.27 48.8193C100.27 47.793 101.105 46.9663 102.142 46.9663C103.179 46.9663 104.014 47.793 104.014 48.8193Z" fill="white"/>
<path d="M117.725 48.8193C117.725 49.8456 116.889 50.6724 115.853 50.6724C114.816 50.6724 113.98 49.8456 113.98 48.8193C113.98 47.793 114.816 46.9663 115.853 46.9663C116.889 46.9663 117.725 47.793 117.725 48.8193Z" fill="white"/>
<path d="M131.435 48.8193C131.435 49.8456 130.6 50.6724 129.563 50.6724C128.526 50.6724 127.691 49.8456 127.691 48.8193C127.691 47.793 128.526 46.9663 129.563 46.9663C130.6 46.9663 131.435 47.793 131.435 48.8193Z" fill="white"/>
<path d="M145.174 48.8193C145.174 49.8456 144.339 50.6724 143.302 50.6724C142.265 50.6724 141.43 49.8456 141.43 48.8193C141.43 47.793 142.265 46.9663 143.302 46.9663C144.339 46.9663 145.174 47.793 145.174 48.8193Z" fill="white"/>
<path d="M158.885 48.8193C158.885 49.8456 158.05 50.6724 157.013 50.6724C155.976 50.6724 155.14 49.8456 155.14 48.8193C155.14 47.793 155.976 46.9663 157.013 46.9663C158.05 46.9663 158.885 47.793 158.885 48.8193Z" fill="white"/>
<path d="M172.595 48.8193C172.595 49.8456 171.76 50.6724 170.723 50.6724C169.686 50.6724 168.851 49.8456 168.851 48.8193C168.851 47.793 169.686 46.9663 170.723 46.9663C171.76 46.9663 172.595 47.793 172.595 48.8193Z" fill="white"/>
<path d="M186.335 48.8193C186.335 49.8456 185.499 50.6724 184.462 50.6724C183.425 50.6724 182.59 49.8456 182.59 48.8193C182.59 47.793 183.425 46.9663 184.462 46.9663C185.499 46.9663 186.335 47.793 186.335 48.8193Z" fill="white"/>
<path d="M200.045 48.8193C200.045 49.8456 199.21 50.6724 198.173 50.6724C197.136 50.6724 196.3 49.8456 196.3 48.8193C196.3 47.793 197.136 46.9663 198.173 46.9663C199.21 46.9663 200.045 47.793 200.045 48.8193Z" fill="white"/>
<path d="M213.755 48.8193C213.755 49.8456 212.92 50.6724 211.883 50.6724C210.846 50.6724 210.011 49.8456 210.011 48.8193C210.011 47.793 210.846 46.9663 211.883 46.9663C212.92 46.9663 213.755 47.793 213.755 48.8193Z" fill="white"/>
<path d="M227.466 48.8193C227.466 49.8456 226.63 50.6724 225.594 50.6724C224.557 50.6724 223.721 49.8456 223.721 48.8193C223.721 47.793 224.557 46.9663 225.594 46.9663C226.63 46.9663 227.466 47.793 227.466 48.8193Z" fill="white"/>
<path d="M40.6756 58.7974C41.7096 58.7974 42.5478 57.9677 42.5478 56.9443C42.5478 55.9209 41.7096 55.0913 40.6756 55.0913C39.6416 55.0913 38.8034 55.9209 38.8034 56.9443C38.8034 57.9677 39.6416 58.7974 40.6756 58.7974Z" fill="white"/>
<path d="M54.4148 58.7974C55.4488 58.7974 56.287 57.9677 56.287 56.9443C56.287 55.9209 55.4488 55.0913 54.4148 55.0913C53.3808 55.0913 52.5426 55.9209 52.5426 56.9443C52.5426 57.9677 53.3808 58.7974 54.4148 58.7974Z" fill="white"/>
<path d="M69.9687 56.9443C69.9687 57.9706 69.1334 58.7974 68.0965 58.7974C67.0595 58.7974 66.2242 57.9706 66.2242 56.9443C66.2242 55.918 67.0595 55.0913 68.0965 55.0913C69.1334 55.0913 69.9687 55.918 69.9687 56.9443Z" fill="white"/>
<path d="M83.7079 56.9443C83.7079 57.9706 82.8726 58.7974 81.8357 58.7974C80.7988 58.7974 79.9635 57.9706 79.9635 56.9443C79.9635 55.918 80.7988 55.0913 81.8357 55.0913C82.8726 55.0913 83.7079 55.918 83.7079 56.9443Z" fill="white"/>
<path d="M95.5461 58.7974C96.5801 58.7974 97.4183 57.9677 97.4183 56.9443C97.4183 55.9209 96.5801 55.0913 95.5461 55.0913C94.5121 55.0913 93.6739 55.9209 93.6739 56.9443C93.6739 57.9677 94.5121 58.7974 95.5461 58.7974Z" fill="white"/>
<path d="M109.285 58.7974C110.319 58.7974 111.158 57.9677 111.158 56.9443C111.158 55.9209 110.319 55.0913 109.285 55.0913C108.251 55.0913 107.413 55.9209 107.413 56.9443C107.413 57.9677 108.251 58.7974 109.285 58.7974Z" fill="white"/>
<path d="M124.868 56.9443C124.868 57.9706 124.033 58.7974 122.996 58.7974C121.959 58.7974 121.124 57.9706 121.124 56.9443C121.124 55.918 121.959 55.0913 122.996 55.0913C124.033 55.0913 124.868 55.918 124.868 56.9443Z" fill="white"/>
<path d="M136.706 58.7974C137.74 58.7974 138.578 57.9677 138.578 56.9443C138.578 55.9209 137.74 55.0913 136.706 55.0913C135.672 55.0913 134.834 55.9209 134.834 56.9443C134.834 57.9677 135.672 58.7974 136.706 58.7974Z" fill="white"/>
<path d="M150.445 58.7974C151.479 58.7974 152.318 57.9677 152.318 56.9443C152.318 55.9209 151.479 55.0913 150.445 55.0913C149.411 55.0913 148.573 55.9209 148.573 56.9443C148.573 57.9677 149.411 58.7974 150.445 58.7974Z" fill="white"/>
<path d="M164.156 58.7974C165.19 58.7974 166.028 57.9677 166.028 56.9443C166.028 55.9209 165.19 55.0913 164.156 55.0913C163.122 55.0913 162.284 55.9209 162.284 56.9443C162.284 57.9677 163.122 58.7974 164.156 58.7974Z" fill="white"/>
<path d="M177.866 58.7974C178.9 58.7974 179.739 57.9677 179.739 56.9443C179.739 55.9209 178.9 55.0913 177.866 55.0913C176.832 55.0913 175.994 55.9209 175.994 56.9443C175.994 57.9677 176.832 58.7974 177.866 58.7974Z" fill="white"/>
<path d="M191.577 58.7974C192.611 58.7974 193.449 57.9677 193.449 56.9443C193.449 55.9209 192.611 55.0913 191.577 55.0913C190.543 55.0913 189.704 55.9209 189.704 56.9443C189.704 57.9677 190.543 58.7974 191.577 58.7974Z" fill="white"/>
<path d="M205.316 58.7974C206.35 58.7974 207.188 57.9677 207.188 56.9443C207.188 55.9209 206.35 55.0913 205.316 55.0913C204.282 55.0913 203.444 55.9209 203.444 56.9443C203.444 57.9677 204.282 58.7974 205.316 58.7974Z" fill="white"/>
<path d="M219.026 58.7974C220.06 58.7974 220.899 57.9677 220.899 56.9443C220.899 55.9209 220.06 55.0913 219.026 55.0913C217.992 55.0913 217.154 55.9209 217.154 56.9443C217.154 57.9677 217.992 58.7974 219.026 58.7974Z" fill="white"/>
<path d="M234.609 56.9443C234.609 57.9706 233.774 58.7974 232.737 58.7974C231.7 58.7974 230.865 57.9706 230.865 56.9443C230.865 55.918 231.7 55.0913 232.737 55.0913C233.774 55.0913 234.609 55.918 234.609 56.9443Z" fill="white"/>
<path d="M35.4046 65.6389C35.4046 66.6652 34.5693 67.4919 33.5323 67.4919C32.4954 67.4919 31.6601 66.6652 31.6601 65.6389C31.6601 64.6126 32.4954 63.7859 33.5323 63.7859C34.5693 63.7859 35.4046 64.6126 35.4046 65.6389Z" fill="white"/>
<path d="M49.1438 65.6389C49.1438 66.6652 48.3085 67.4919 47.2716 67.4919C46.2347 67.4919 45.3994 66.6652 45.3994 65.6389C45.3994 64.6126 46.2347 63.7859 47.2716 63.7859C48.3085 63.7859 49.1438 64.6126 49.1438 65.6389Z" fill="white"/>
<path d="M62.8542 65.6389C62.8542 66.6652 62.0189 67.4919 60.982 67.4919C59.9451 67.4919 59.1098 66.6652 59.1098 65.6389C59.1098 64.6126 59.9451 63.7859 60.982 63.7859C62.0189 63.7859 62.8542 64.6126 62.8542 65.6389Z" fill="white"/>
<path d="M76.5647 65.6389C76.5647 66.6652 75.7294 67.4919 74.6924 67.4919C73.6555 67.4919 72.8202 66.6652 72.8202 65.6389C72.8202 64.6126 73.6555 63.7859 74.6924 63.7859C75.7294 63.7859 76.5647 64.6126 76.5647 65.6389Z" fill="white"/>
<path d="M90.3039 65.6389C90.3039 66.6652 89.4686 67.4919 88.4317 67.4919C87.3947 67.4919 86.5594 66.6652 86.5594 65.6389C86.5594 64.6126 87.3947 63.7859 88.4317 63.7859C89.4686 63.7859 90.3039 64.6126 90.3039 65.6389Z" fill="white"/>
<path d="M104.014 65.6389C104.014 66.6652 103.179 67.4919 102.142 67.4919C101.105 67.4919 100.27 66.6652 100.27 65.6389C100.27 64.6126 101.105 63.7859 102.142 63.7859C103.179 63.7859 104.014 64.6126 104.014 65.6389Z" fill="white"/>
<path d="M117.725 65.6389C117.725 66.6652 116.889 67.4919 115.853 67.4919C114.816 67.4919 113.98 66.6652 113.98 65.6389C113.98 64.6126 114.816 63.7859 115.853 63.7859C116.889 63.7859 117.725 64.6126 117.725 65.6389Z" fill="white"/>
<path d="M131.435 65.6389C131.435 66.6652 130.6 67.4919 129.563 67.4919C128.526 67.4919 127.691 66.6652 127.691 65.6389C127.691 64.6126 128.526 63.7859 129.563 63.7859C130.6 63.7859 131.435 64.6126 131.435 65.6389Z" fill="white"/>
<path d="M145.174 65.6389C145.174 66.6652 144.339 67.4919 143.302 67.4919C142.265 67.4919 141.43 66.6652 141.43 65.6389C141.43 64.6126 142.265 63.7859 143.302 63.7859C144.339 63.7859 145.174 64.6126 145.174 65.6389Z" fill="white"/>
<path d="M158.885 65.6389C158.885 66.6652 158.05 67.4919 157.013 67.4919C155.976 67.4919 155.14 66.6652 155.14 65.6389C155.14 64.6126 155.976 63.7859 157.013 63.7859C158.05 63.7859 158.885 64.6126 158.885 65.6389Z" fill="white"/>
<path d="M172.595 65.6389C172.595 66.6652 171.76 67.4919 170.723 67.4919C169.686 67.4919 168.851 66.6652 168.851 65.6389C168.851 64.6126 169.686 63.7859 170.723 63.7859C171.76 63.7859 172.595 64.6126 172.595 65.6389Z" fill="white"/>
<path d="M186.335 65.6389C186.335 66.6652 185.499 67.4919 184.462 67.4919C183.425 67.4919 182.59 66.6652 182.59 65.6389C182.59 64.6126 183.425 63.7859 184.462 63.7859C185.499 63.7859 186.335 64.6126 186.335 65.6389Z" fill="white"/>
<path d="M200.045 65.6389C200.045 66.6652 199.21 67.4919 198.173 67.4919C197.136 67.4919 196.3 66.6652 196.3 65.6389C196.3 64.6126 197.136 63.7859 198.173 63.7859C199.21 63.7859 200.045 64.6126 200.045 65.6389Z" fill="white"/>
<path d="M213.755 65.6389C213.755 66.6652 212.92 67.4919 211.883 67.4919C210.846 67.4919 210.011 66.6652 210.011 65.6389C210.011 64.6126 210.846 63.7859 211.883 63.7859C212.92 63.7859 213.755 64.6126 213.755 65.6389Z" fill="white"/>
<path d="M227.466 65.6389C227.466 66.6652 226.63 67.4919 225.594 67.4919C224.557 67.4919 223.721 66.6652 223.721 65.6389C223.721 64.6126 224.557 63.7859 225.594 63.7859C226.63 63.7859 227.466 64.6126 227.466 65.6389Z" fill="white"/>
<path d="M42.5478 73.7639C42.5478 74.7902 41.7125 75.6169 40.6756 75.6169C39.6387 75.6169 38.8034 74.7902 38.8034 73.7639C38.8034 72.7376 39.6387 71.9109 40.6756 71.9109C41.7125 71.9109 42.5478 72.7376 42.5478 73.7639Z" fill="white"/>
<path d="M56.2582 73.7639C56.2582 74.7902 55.4229 75.6169 54.386 75.6169C53.3491 75.6169 52.5138 74.7902 52.5138 73.7639C52.5138 72.7376 53.3491 71.9109 54.386 71.9109C55.4229 71.9109 56.2582 72.7376 56.2582 73.7639Z" fill="white"/>
<path d="M69.9687 73.7639C69.9687 74.7902 69.1334 75.6169 68.0965 75.6169C67.0595 75.6169 66.2242 74.7902 66.2242 73.7639C66.2242 72.7376 67.0595 71.9109 68.0965 71.9109C69.1334 71.9109 69.9687 72.7376 69.9687 73.7639Z" fill="white"/>
<path d="M83.7079 73.7639C83.7079 74.7902 82.8726 75.6169 81.8357 75.6169C80.7988 75.6169 79.9635 74.7902 79.9635 73.7639C79.9635 72.7376 80.7988 71.9109 81.8357 71.9109C82.8726 71.9109 83.7079 72.7376 83.7079 73.7639Z" fill="white"/>
<path d="M97.4183 73.7639C97.4183 74.7902 96.583 75.6169 95.5461 75.6169C94.5092 75.6169 93.6739 74.7902 93.6739 73.7639C93.6739 72.7376 94.5092 71.9109 95.5461 71.9109C96.583 71.9109 97.4183 72.7376 97.4183 73.7639Z" fill="white"/>
<path d="M111.129 73.7639C111.129 74.7902 110.293 75.6169 109.257 75.6169C108.22 75.6169 107.384 74.7902 107.384 73.7639C107.384 72.7376 108.22 71.9109 109.257 71.9109C110.293 71.9109 111.129 72.7376 111.129 73.7639Z" fill="white"/>
<path d="M124.868 73.7639C124.868 74.7902 124.033 75.6169 122.996 75.6169C121.959 75.6169 121.124 74.7902 121.124 73.7639C121.124 72.7376 121.959 71.9109 122.996 71.9109C124.033 71.9109 124.868 72.7376 124.868 73.7639Z" fill="white"/>
<path d="M138.578 73.7639C138.578 74.7902 137.743 75.6169 136.706 75.6169C135.669 75.6169 134.834 74.7902 134.834 73.7639C134.834 72.7376 135.669 71.9109 136.706 71.9109C137.743 71.9109 138.578 72.7376 138.578 73.7639Z" fill="white"/>
<path d="M152.289 73.7639C152.289 74.7902 151.454 75.6169 150.417 75.6169C149.38 75.6169 148.544 74.7902 148.544 73.7639C148.544 72.7376 149.38 71.9109 150.417 71.9109C151.454 71.9109 152.289 72.7376 152.289 73.7639Z" fill="white"/>
<path d="M165.999 73.7639C165.999 74.7902 165.164 75.6169 164.127 75.6169C163.09 75.6169 162.255 74.7902 162.255 73.7639C162.255 72.7376 163.09 71.9109 164.127 71.9109C165.164 71.9109 165.999 72.7376 165.999 73.7639Z" fill="white"/>
<path d="M179.739 73.7639C179.739 74.7902 178.903 75.6169 177.866 75.6169C176.829 75.6169 175.994 74.7902 175.994 73.7639C175.994 72.7376 176.829 71.9109 177.866 71.9109C178.903 71.9109 179.739 72.7376 179.739 73.7639Z" fill="white"/>
<path d="M193.449 73.7639C193.449 74.7902 192.614 75.6169 191.577 75.6169C190.54 75.6169 189.704 74.7902 189.704 73.7639C189.704 72.7376 190.54 71.9109 191.577 71.9109C192.614 71.9109 193.449 72.7376 193.449 73.7639Z" fill="white"/>
<path d="M207.159 73.7639C207.159 74.7902 206.324 75.6169 205.287 75.6169C204.25 75.6169 203.415 74.7902 203.415 73.7639C203.415 72.7376 204.25 71.9109 205.287 71.9109C206.324 71.9109 207.159 72.7376 207.159 73.7639Z" fill="white"/>
<path d="M220.899 73.7639C220.899 74.7902 220.063 75.6169 219.026 75.6169C217.989 75.6169 217.154 74.7902 217.154 73.7639C217.154 72.7376 217.989 71.9109 219.026 71.9109C220.063 71.9109 220.899 72.7376 220.899 73.7639Z" fill="white"/>
<path d="M234.609 73.7639C234.609 74.7902 233.774 75.6169 232.737 75.6169C231.7 75.6169 230.865 74.7902 230.865 73.7639C230.865 72.7376 231.7 71.9109 232.737 71.9109C233.774 71.9109 234.609 72.7376 234.609 73.7639Z" fill="white"/>
<path d="M33.5612 84.2832C34.5952 84.2832 35.4334 83.4536 35.4334 82.4302C35.4334 81.4068 34.5952 80.5771 33.5612 80.5771C32.5272 80.5771 31.6889 81.4068 31.6889 82.4302C31.6889 83.4536 32.5272 84.2832 33.5612 84.2832Z" fill="white"/>
<path d="M49.1438 82.4302C49.1438 83.4565 48.3085 84.2832 47.2716 84.2832C46.2347 84.2832 45.3994 83.4565 45.3994 82.4302C45.3994 81.4039 46.2347 80.5771 47.2716 80.5771C48.3085 80.5771 49.1438 81.4039 49.1438 82.4302Z" fill="white"/>
<path d="M62.8542 82.4302C62.8542 83.4565 62.0189 84.2832 60.982 84.2832C59.9451 84.2832 59.1098 83.4565 59.1098 82.4302C59.1098 81.4039 59.9451 80.5771 60.982 80.5771C62.0189 80.5771 62.8542 81.4039 62.8542 82.4302Z" fill="white"/>
<path d="M74.7212 84.2832C75.7552 84.2832 76.5934 83.4536 76.5934 82.4302C76.5934 81.4068 75.7552 80.5771 74.7212 80.5771C73.6872 80.5771 72.849 81.4068 72.849 82.4302C72.849 83.4536 73.6872 84.2832 74.7212 84.2832Z" fill="white"/>
<path d="M90.3039 82.4302C90.3039 83.4565 89.4686 84.2832 88.4317 84.2832C87.3947 84.2832 86.5594 83.4565 86.5594 82.4302C86.5594 81.4039 87.3947 80.5771 88.4317 80.5771C89.4686 80.5771 90.3039 81.4039 90.3039 82.4302Z" fill="white"/>
<path d="M102.142 84.2832C103.176 84.2832 104.014 83.4536 104.014 82.4302C104.014 81.4068 103.176 80.5771 102.142 80.5771C101.108 80.5771 100.27 81.4068 100.27 82.4302C100.27 83.4536 101.108 84.2832 102.142 84.2832Z" fill="white"/>
<path d="M115.881 84.2832C116.915 84.2832 117.754 83.4536 117.754 82.4302C117.754 81.4068 116.915 80.5771 115.881 80.5771C114.847 80.5771 114.009 81.4068 114.009 82.4302C114.009 83.4536 114.847 84.2832 115.881 84.2832Z" fill="white"/>
<path d="M131.435 82.4302C131.435 83.4565 130.6 84.2832 129.563 84.2832C128.526 84.2832 127.691 83.4565 127.691 82.4302C127.691 81.4039 128.526 80.5771 129.563 80.5771C130.6 80.5771 131.435 81.4039 131.435 82.4302Z" fill="white"/>
<path d="M143.302 84.2832C144.336 84.2832 145.174 83.4536 145.174 82.4302C145.174 81.4068 144.336 80.5771 143.302 80.5771C142.268 80.5771 141.43 81.4068 141.43 82.4302C141.43 83.4536 142.268 84.2832 143.302 84.2832Z" fill="white"/>
<path d="M157.013 84.2832C158.047 84.2832 158.885 83.4536 158.885 82.4302C158.885 81.4068 158.047 80.5771 157.013 80.5771C155.979 80.5771 155.14 81.4068 155.14 82.4302C155.14 83.4536 155.979 84.2832 157.013 84.2832Z" fill="white"/>
<path d="M172.595 82.4302C172.595 83.4565 171.76 84.2832 170.723 84.2832C169.686 84.2832 168.851 83.4565 168.851 82.4302C168.851 81.4039 169.686 80.5771 170.723 80.5771C171.76 80.5771 172.595 81.4039 172.595 82.4302Z" fill="white"/>
<path d="M184.462 84.2832C185.496 84.2832 186.335 83.4536 186.335 82.4302C186.335 81.4068 185.496 80.5771 184.462 80.5771C183.428 80.5771 182.59 81.4068 182.59 82.4302C182.59 83.4536 183.428 84.2832 184.462 84.2832Z" fill="white"/>
<path d="M198.173 84.2832C199.207 84.2832 200.045 83.4536 200.045 82.4302C200.045 81.4068 199.207 80.5771 198.173 80.5771C197.139 80.5771 196.3 81.4068 196.3 82.4302C196.3 83.4536 197.139 84.2832 198.173 84.2832Z" fill="white"/>
<path d="M211.912 84.2832C212.946 84.2832 213.784 83.4536 213.784 82.4302C213.784 81.4068 212.946 80.5771 211.912 80.5771C210.878 80.5771 210.04 81.4068 210.04 82.4302C210.04 83.4536 210.878 84.2832 211.912 84.2832Z" fill="white"/>
<path d="M225.622 84.2832C226.656 84.2832 227.495 83.4536 227.495 82.4302C227.495 81.4068 226.656 80.5771 225.622 80.5771C224.588 80.5771 223.75 81.4068 223.75 82.4302C223.75 83.4536 224.588 84.2832 225.622 84.2832Z" fill="white"/>
<path d="M40.6756 92.4082C41.7096 92.4082 42.5478 91.5786 42.5478 90.5552C42.5478 89.5318 41.7096 88.7021 40.6756 88.7021C39.6416 88.7021 38.8034 89.5318 38.8034 90.5552C38.8034 91.5786 39.6416 92.4082 40.6756 92.4082Z" fill="white"/>
<path d="M54.4148 92.4082C55.4488 92.4082 56.287 91.5786 56.287 90.5552C56.287 89.5318 55.4488 88.7021 54.4148 88.7021C53.3808 88.7021 52.5426 89.5318 52.5426 90.5552C52.5426 91.5786 53.3808 92.4082 54.4148 92.4082Z" fill="white"/>
<path d="M69.9687 90.5552C69.9687 91.5815 69.1334 92.4082 68.0965 92.4082C67.0595 92.4082 66.2242 91.5815 66.2242 90.5552C66.2242 89.5289 67.0595 88.7021 68.0965 88.7021C69.1334 88.7021 69.9687 89.5289 69.9687 90.5552Z" fill="white"/>
<path d="M83.7079 90.5552C83.7079 91.5815 82.8726 92.4082 81.8357 92.4082C80.7988 92.4082 79.9635 91.5815 79.9635 90.5552C79.9635 89.5289 80.7988 88.7021 81.8357 88.7021C82.8726 88.7021 83.7079 89.5289 83.7079 90.5552Z" fill="white"/>
<path d="M95.5461 92.4082C96.5801 92.4082 97.4183 91.5786 97.4183 90.5552C97.4183 89.5318 96.5801 88.7021 95.5461 88.7021C94.5121 88.7021 93.6739 89.5318 93.6739 90.5552C93.6739 91.5786 94.5121 92.4082 95.5461 92.4082Z" fill="white"/>
<path d="M109.285 92.4082C110.319 92.4082 111.158 91.5786 111.158 90.5552C111.158 89.5318 110.319 88.7021 109.285 88.7021C108.251 88.7021 107.413 89.5318 107.413 90.5552C107.413 91.5786 108.251 92.4082 109.285 92.4082Z" fill="white"/>
<path d="M124.868 90.5552C124.868 91.5815 124.033 92.4082 122.996 92.4082C121.959 92.4082 121.124 91.5815 121.124 90.5552C121.124 89.5289 121.959 88.7021 122.996 88.7021C124.033 88.7021 124.868 89.5289 124.868 90.5552Z" fill="white"/>
<path d="M136.706 92.4082C137.74 92.4082 138.578 91.5786 138.578 90.5552C138.578 89.5318 137.74 88.7021 136.706 88.7021C135.672 88.7021 134.834 89.5318 134.834 90.5552C134.834 91.5786 135.672 92.4082 136.706 92.4082Z" fill="white"/>
<path d="M150.445 92.4082C151.479 92.4082 152.318 91.5786 152.318 90.5552C152.318 89.5318 151.479 88.7021 150.445 88.7021C149.411 88.7021 148.573 89.5318 148.573 90.5552C148.573 91.5786 149.411 92.4082 150.445 92.4082Z" fill="white"/>
<path d="M164.156 92.4082C165.19 92.4082 166.028 91.5786 166.028 90.5552C166.028 89.5318 165.19 88.7021 164.156 88.7021C163.122 88.7021 162.284 89.5318 162.284 90.5552C162.284 91.5786 163.122 92.4082 164.156 92.4082Z" fill="white"/>
<path d="M177.866 92.4082C178.9 92.4082 179.739 91.5786 179.739 90.5552C179.739 89.5318 178.9 88.7021 177.866 88.7021C176.832 88.7021 175.994 89.5318 175.994 90.5552C175.994 91.5786 176.832 92.4082 177.866 92.4082Z" fill="white"/>
<path d="M191.577 92.4082C192.611 92.4082 193.449 91.5786 193.449 90.5552C193.449 89.5318 192.611 88.7021 191.577 88.7021C190.543 88.7021 189.704 89.5318 189.704 90.5552C189.704 91.5786 190.543 92.4082 191.577 92.4082Z" fill="white"/>
<path d="M205.316 92.4082C206.35 92.4082 207.188 91.5786 207.188 90.5552C207.188 89.5318 206.35 88.7021 205.316 88.7021C204.282 88.7021 203.444 89.5318 203.444 90.5552C203.444 91.5786 204.282 92.4082 205.316 92.4082Z" fill="white"/>
<path d="M219.026 92.4082C220.06 92.4082 220.899 91.5786 220.899 90.5552C220.899 89.5318 220.06 88.7021 219.026 88.7021C217.992 88.7021 217.154 89.5318 217.154 90.5552C217.154 91.5786 217.992 92.4082 219.026 92.4082Z" fill="white"/>
<path d="M234.609 90.5552C234.609 91.5815 233.774 92.4082 232.737 92.4082C231.7 92.4082 230.865 91.5815 230.865 90.5552C230.865 89.5289 231.7 88.7021 232.737 88.7021C233.774 88.7021 234.609 89.5289 234.609 90.5552Z" fill="white"/>
<path d="M33.5612 101.075C34.5952 101.075 35.4334 100.245 35.4334 99.2217C35.4334 98.1983 34.5952 97.3687 33.5612 97.3687C32.5272 97.3687 31.6889 98.1983 31.6889 99.2217C31.6889 100.245 32.5272 101.075 33.5612 101.075Z" fill="white"/>
<path d="M49.1438 99.2217C49.1438 100.248 48.3085 101.075 47.2716 101.075C46.2347 101.075 45.3994 100.248 45.3994 99.2217C45.3994 98.1954 46.2347 97.3687 47.2716 97.3687C48.3085 97.3687 49.1438 98.1954 49.1438 99.2217Z" fill="white"/>
<path d="M62.8542 99.2217C62.8542 100.248 62.0189 101.075 60.982 101.075C59.9451 101.075 59.1098 100.248 59.1098 99.2217C59.1098 98.1954 59.9451 97.3687 60.982 97.3687C62.0189 97.3687 62.8542 98.1954 62.8542 99.2217Z" fill="white"/>
<path d="M74.7212 101.075C75.7552 101.075 76.5934 100.245 76.5934 99.2217C76.5934 98.1983 75.7552 97.3687 74.7212 97.3687C73.6872 97.3687 72.849 98.1983 72.849 99.2217C72.849 100.245 73.6872 101.075 74.7212 101.075Z" fill="white"/>
<path d="M90.3039 99.2217C90.3039 100.248 89.4686 101.075 88.4317 101.075C87.3947 101.075 86.5594 100.248 86.5594 99.2217C86.5594 98.1954 87.3947 97.3687 88.4317 97.3687C89.4686 97.3687 90.3039 98.1954 90.3039 99.2217Z" fill="white"/>
<path d="M102.142 101.075C103.176 101.075 104.014 100.245 104.014 99.2217C104.014 98.1983 103.176 97.3687 102.142 97.3687C101.108 97.3687 100.27 98.1983 100.27 99.2217C100.27 100.245 101.108 101.075 102.142 101.075Z" fill="white"/>
<path d="M115.881 101.075C116.915 101.075 117.754 100.245 117.754 99.2217C117.754 98.1983 116.915 97.3687 115.881 97.3687C114.847 97.3687 114.009 98.1983 114.009 99.2217C114.009 100.245 114.847 101.075 115.881 101.075Z" fill="white"/>
<path d="M131.435 99.2217C131.435 100.248 130.6 101.075 129.563 101.075C128.526 101.075 127.691 100.248 127.691 99.2217C127.691 98.1954 128.526 97.3687 129.563 97.3687C130.6 97.3687 131.435 98.1954 131.435 99.2217Z" fill="white"/>
<path d="M143.302 101.075C144.336 101.075 145.174 100.245 145.174 99.2217C145.174 98.1983 144.336 97.3687 143.302 97.3687C142.268 97.3687 141.43 98.1983 141.43 99.2217C141.43 100.245 142.268 101.075 143.302 101.075Z" fill="white"/>
<path d="M157.013 101.075C158.047 101.075 158.885 100.245 158.885 99.2217C158.885 98.1983 158.047 97.3687 157.013 97.3687C155.979 97.3687 155.14 98.1983 155.14 99.2217C155.14 100.245 155.979 101.075 157.013 101.075Z" fill="white"/>
<path d="M172.595 99.2217C172.595 100.248 171.76 101.075 170.723 101.075C169.686 101.075 168.851 100.248 168.851 99.2217C168.851 98.1954 169.686 97.3687 170.723 97.3687C171.76 97.3687 172.595 98.1954 172.595 99.2217Z" fill="white"/>
<path d="M184.462 101.075C185.496 101.075 186.335 100.245 186.335 99.2217C186.335 98.1983 185.496 97.3687 184.462 97.3687C183.428 97.3687 182.59 98.1983 182.59 99.2217C182.59 100.245 183.428 101.075 184.462 101.075Z" fill="white"/>
<path d="M198.173 101.075C199.207 101.075 200.045 100.245 200.045 99.2217C200.045 98.1983 199.207 97.3687 198.173 97.3687C197.139 97.3687 196.3 98.1983 196.3 99.2217C196.3 100.245 197.139 101.075 198.173 101.075Z" fill="white"/>
<path d="M211.912 101.075C212.946 101.075 213.784 100.245 213.784 99.2217C213.784 98.1983 212.946 97.3687 211.912 97.3687C210.878 97.3687 210.04 98.1983 210.04 99.2217C210.04 100.245 210.878 101.075 211.912 101.075Z" fill="white"/>
<path d="M225.622 101.075C226.656 101.075 227.495 100.245 227.495 99.2217C227.495 98.1983 226.656 97.3687 225.622 97.3687C224.588 97.3687 223.75 98.1983 223.75 99.2217C223.75 100.245 224.588 101.075 225.622 101.075Z" fill="white"/>
<path d="M40.6756 109.228C41.7096 109.228 42.5478 108.398 42.5478 107.375C42.5478 106.351 41.7096 105.522 40.6756 105.522C39.6416 105.522 38.8034 106.351 38.8034 107.375C38.8034 108.398 39.6416 109.228 40.6756 109.228Z" fill="white"/>
<path d="M54.4148 109.228C55.4488 109.228 56.287 108.398 56.287 107.375C56.287 106.351 55.4488 105.522 54.4148 105.522C53.3808 105.522 52.5426 106.351 52.5426 107.375C52.5426 108.398 53.3808 109.228 54.4148 109.228Z" fill="white"/>
<path d="M69.9687 107.375C69.9687 108.401 69.1334 109.228 68.0965 109.228C67.0595 109.228 66.2242 108.401 66.2242 107.375C66.2242 106.348 67.0595 105.522 68.0965 105.522C69.1334 105.522 69.9687 106.348 69.9687 107.375Z" fill="white"/>
<path d="M83.7079 107.375C83.7079 108.401 82.8726 109.228 81.8357 109.228C80.7988 109.228 79.9635 108.401 79.9635 107.375C79.9635 106.348 80.7988 105.522 81.8357 105.522C82.8726 105.522 83.7079 106.348 83.7079 107.375Z" fill="white"/>
<path d="M95.5461 109.228C96.5801 109.228 97.4183 108.398 97.4183 107.375C97.4183 106.351 96.5801 105.522 95.5461 105.522C94.5121 105.522 93.6739 106.351 93.6739 107.375C93.6739 108.398 94.5121 109.228 95.5461 109.228Z" fill="white"/>
<path d="M109.285 109.228C110.319 109.228 111.158 108.398 111.158 107.375C111.158 106.351 110.319 105.522 109.285 105.522C108.251 105.522 107.413 106.351 107.413 107.375C107.413 108.398 108.251 109.228 109.285 109.228Z" fill="white"/>
<path d="M124.868 107.375C124.868 108.401 124.033 109.228 122.996 109.228C121.959 109.228 121.124 108.401 121.124 107.375C121.124 106.348 121.959 105.522 122.996 105.522C124.033 105.522 124.868 106.348 124.868 107.375Z" fill="white"/>
<path d="M136.706 109.228C137.74 109.228 138.578 108.398 138.578 107.375C138.578 106.351 137.74 105.522 136.706 105.522C135.672 105.522 134.834 106.351 134.834 107.375C134.834 108.398 135.672 109.228 136.706 109.228Z" fill="white"/>
<path d="M150.445 109.228C151.479 109.228 152.318 108.398 152.318 107.375C152.318 106.351 151.479 105.522 150.445 105.522C149.411 105.522 148.573 106.351 148.573 107.375C148.573 108.398 149.411 109.228 150.445 109.228Z" fill="white"/>
<path d="M164.156 109.228C165.19 109.228 166.028 108.398 166.028 107.375C166.028 106.351 165.19 105.522 164.156 105.522C163.122 105.522 162.284 106.351 162.284 107.375C162.284 108.398 163.122 109.228 164.156 109.228Z" fill="white"/>
<path d="M177.866 109.228C178.9 109.228 179.739 108.398 179.739 107.375C179.739 106.351 178.9 105.522 177.866 105.522C176.832 105.522 175.994 106.351 175.994 107.375C175.994 108.398 176.832 109.228 177.866 109.228Z" fill="white"/>
<path d="M191.577 109.228C192.611 109.228 193.449 108.398 193.449 107.375C193.449 106.351 192.611 105.522 191.577 105.522C190.543 105.522 189.704 106.351 189.704 107.375C189.704 108.398 190.543 109.228 191.577 109.228Z" fill="white"/>
<path d="M205.316 109.228C206.35 109.228 207.188 108.398 207.188 107.375C207.188 106.351 206.35 105.522 205.316 105.522C204.282 105.522 203.444 106.351 203.444 107.375C203.444 108.398 204.282 109.228 205.316 109.228Z" fill="white"/>
<path d="M219.026 109.228C220.06 109.228 220.899 108.398 220.899 107.375C220.899 106.351 220.06 105.522 219.026 105.522C217.992 105.522 217.154 106.351 217.154 107.375C217.154 108.398 217.992 109.228 219.026 109.228Z" fill="white"/>
<path d="M234.609 107.375C234.609 108.401 233.774 109.228 232.737 109.228C231.7 109.228 230.865 108.401 230.865 107.375C230.865 106.348 231.7 105.522 232.737 105.522C233.774 105.522 234.609 106.348 234.609 107.375Z" fill="white"/>
<path d="M33.5612 117.894C34.5952 117.894 35.4334 117.065 35.4334 116.041C35.4334 115.018 34.5952 114.188 33.5612 114.188C32.5272 114.188 31.6889 115.018 31.6889 116.041C31.6889 117.065 32.5272 117.894 33.5612 117.894Z" fill="white"/>
<path d="M49.1438 116.041C49.1438 117.068 48.3085 117.894 47.2716 117.894C46.2347 117.894 45.3994 117.068 45.3994 116.041C45.3994 115.015 46.2347 114.188 47.2716 114.188C48.3085 114.188 49.1438 115.015 49.1438 116.041Z" fill="white"/>
<path d="M62.8542 116.041C62.8542 117.068 62.0189 117.894 60.982 117.894C59.9451 117.894 59.1098 117.068 59.1098 116.041C59.1098 115.015 59.9451 114.188 60.982 114.188C62.0189 114.188 62.8542 115.015 62.8542 116.041Z" fill="white"/>
<path d="M74.7212 117.894C75.7552 117.894 76.5934 117.065 76.5934 116.041C76.5934 115.018 75.7552 114.188 74.7212 114.188C73.6872 114.188 72.849 115.018 72.849 116.041C72.849 117.065 73.6872 117.894 74.7212 117.894Z" fill="white"/>
<path d="M90.3039 116.041C90.3039 117.068 89.4686 117.894 88.4317 117.894C87.3947 117.894 86.5594 117.068 86.5594 116.041C86.5594 115.015 87.3947 114.188 88.4317 114.188C89.4686 114.188 90.3039 115.015 90.3039 116.041Z" fill="white"/>
<path d="M102.142 117.894C103.176 117.894 104.014 117.065 104.014 116.041C104.014 115.018 103.176 114.188 102.142 114.188C101.108 114.188 100.27 115.018 100.27 116.041C100.27 117.065 101.108 117.894 102.142 117.894Z" fill="white"/>
<path d="M115.881 117.894C116.915 117.894 117.754 117.065 117.754 116.041C117.754 115.018 116.915 114.188 115.881 114.188C114.847 114.188 114.009 115.018 114.009 116.041C114.009 117.065 114.847 117.894 115.881 117.894Z" fill="white"/>
<path d="M131.435 116.041C131.435 117.068 130.6 117.894 129.563 117.894C128.526 117.894 127.691 117.068 127.691 116.041C127.691 115.015 128.526 114.188 129.563 114.188C130.6 114.188 131.435 115.015 131.435 116.041Z" fill="white"/>
<path d="M143.302 117.894C144.336 117.894 145.174 117.065 145.174 116.041C145.174 115.018 144.336 114.188 143.302 114.188C142.268 114.188 141.43 115.018 141.43 116.041C141.43 117.065 142.268 117.894 143.302 117.894Z" fill="white"/>
<path d="M157.013 117.894C158.047 117.894 158.885 117.065 158.885 116.041C158.885 115.018 158.047 114.188 157.013 114.188C155.979 114.188 155.14 115.018 155.14 116.041C155.14 117.065 155.979 117.894 157.013 117.894Z" fill="white"/>
<path d="M172.595 116.041C172.595 117.068 171.76 117.894 170.723 117.894C169.686 117.894 168.851 117.068 168.851 116.041C168.851 115.015 169.686 114.188 170.723 114.188C171.76 114.188 172.595 115.015 172.595 116.041Z" fill="white"/>
<path d="M184.462 117.894C185.496 117.894 186.335 117.065 186.335 116.041C186.335 115.018 185.496 114.188 184.462 114.188C183.428 114.188 182.59 115.018 182.59 116.041C182.59 117.065 183.428 117.894 184.462 117.894Z" fill="white"/>
<path d="M198.173 117.894C199.207 117.894 200.045 117.065 200.045 116.041C200.045 115.018 199.207 114.188 198.173 114.188C197.139 114.188 196.3 115.018 196.3 116.041C196.3 117.065 197.139 117.894 198.173 117.894Z" fill="white"/>
<path d="M211.912 117.894C212.946 117.894 213.784 117.065 213.784 116.041C213.784 115.018 212.946 114.188 211.912 114.188C210.878 114.188 210.04 115.018 210.04 116.041C210.04 117.065 210.878 117.894 211.912 117.894Z" fill="white"/>
<path d="M225.622 117.894C226.656 117.894 227.495 117.065 227.495 116.041C227.495 115.018 226.656 114.188 225.622 114.188C224.588 114.188 223.75 115.018 223.75 116.041C223.75 117.065 224.588 117.894 225.622 117.894Z" fill="white"/>
<path d="M42.5478 124.166C42.5478 125.193 41.7125 126.019 40.6756 126.019C39.6387 126.019 38.8034 125.193 38.8034 124.166C38.8034 123.14 39.6387 122.313 40.6756 122.313C41.7125 122.313 42.5478 123.14 42.5478 124.166Z" fill="white"/>
<path d="M56.2582 124.166C56.2582 125.193 55.4229 126.019 54.386 126.019C53.3491 126.019 52.5138 125.193 52.5138 124.166C52.5138 123.14 53.3491 122.313 54.386 122.313C55.4229 122.313 56.2582 123.14 56.2582 124.166Z" fill="white"/>
<path d="M69.9687 124.166C69.9687 125.193 69.1334 126.019 68.0965 126.019C67.0595 126.019 66.2242 125.193 66.2242 124.166C66.2242 123.14 67.0595 122.313 68.0965 122.313C69.1334 122.313 69.9687 123.14 69.9687 124.166Z" fill="white"/>
<path d="M83.7079 124.166C83.7079 125.193 82.8726 126.019 81.8357 126.019C80.7988 126.019 79.9635 125.193 79.9635 124.166C79.9635 123.14 80.7988 122.313 81.8357 122.313C82.8726 122.313 83.7079 123.14 83.7079 124.166Z" fill="white"/>
<path d="M97.4183 124.166C97.4183 125.193 96.583 126.019 95.5461 126.019C94.5092 126.019 93.6739 125.193 93.6739 124.166C93.6739 123.14 94.5092 122.313 95.5461 122.313C96.583 122.313 97.4183 123.14 97.4183 124.166Z" fill="white"/>
<path d="M111.129 124.166C111.129 125.193 110.293 126.019 109.257 126.019C108.22 126.019 107.384 125.193 107.384 124.166C107.384 123.14 108.22 122.313 109.257 122.313C110.293 122.313 111.129 123.14 111.129 124.166Z" fill="white"/>
<path d="M124.868 124.166C124.868 125.193 124.033 126.019 122.996 126.019C121.959 126.019 121.124 125.193 121.124 124.166C121.124 123.14 121.959 122.313 122.996 122.313C124.033 122.313 124.868 123.14 124.868 124.166Z" fill="white"/>
<path d="M138.578 124.166C138.578 125.193 137.743 126.019 136.706 126.019C135.669 126.019 134.834 125.193 134.834 124.166C134.834 123.14 135.669 122.313 136.706 122.313C137.743 122.313 138.578 123.14 138.578 124.166Z" fill="white"/>
<path d="M152.289 124.166C152.289 125.193 151.454 126.019 150.417 126.019C149.38 126.019 148.544 125.193 148.544 124.166C148.544 123.14 149.38 122.313 150.417 122.313C151.454 122.313 152.289 123.14 152.289 124.166Z" fill="white"/>
<path d="M165.999 124.166C165.999 125.193 165.164 126.019 164.127 126.019C163.09 126.019 162.255 125.193 162.255 124.166C162.255 123.14 163.09 122.313 164.127 122.313C165.164 122.313 165.999 123.14 165.999 124.166Z" fill="white"/>
<path d="M179.739 124.166C179.739 125.193 178.903 126.019 177.866 126.019C176.829 126.019 175.994 125.193 175.994 124.166C175.994 123.14 176.829 122.313 177.866 122.313C178.903 122.313 179.739 123.14 179.739 124.166Z" fill="white"/>
<path d="M193.449 124.166C193.449 125.193 192.614 126.019 191.577 126.019C190.54 126.019 189.704 125.193 189.704 124.166C189.704 123.14 190.54 122.313 191.577 122.313C192.614 122.313 193.449 123.14 193.449 124.166Z" fill="white"/>
<path d="M207.159 124.166C207.159 125.193 206.324 126.019 205.287 126.019C204.25 126.019 203.415 125.193 203.415 124.166C203.415 123.14 204.25 122.313 205.287 122.313C206.324 122.313 207.159 123.14 207.159 124.166Z" fill="white"/>
<path d="M220.899 124.166C220.899 125.193 220.063 126.019 219.026 126.019C217.989 126.019 217.154 125.193 217.154 124.166C217.154 123.14 217.989 122.313 219.026 122.313C220.063 122.313 220.899 123.14 220.899 124.166Z" fill="white"/>
<path d="M234.609 124.166C234.609 125.193 233.774 126.019 232.737 126.019C231.7 126.019 230.865 125.193 230.865 124.166C230.865 123.14 231.7 122.313 232.737 122.313C233.774 122.313 234.609 123.14 234.609 124.166Z" fill="white"/>
<path d="M33.5612 134.686C34.5952 134.686 35.4334 133.856 35.4334 132.833C35.4334 131.809 34.5952 130.98 33.5612 130.98C32.5272 130.98 31.6889 131.809 31.6889 132.833C31.6889 133.856 32.5272 134.686 33.5612 134.686Z" fill="white"/>
<path d="M49.1438 132.833C49.1438 133.859 48.3085 134.686 47.2716 134.686C46.2347 134.686 45.3994 133.859 45.3994 132.833C45.3994 131.806 46.2347 130.98 47.2716 130.98C48.3085 130.98 49.1438 131.806 49.1438 132.833Z" fill="white"/>
<path d="M62.8542 132.833C62.8542 133.859 62.0189 134.686 60.982 134.686C59.9451 134.686 59.1098 133.859 59.1098 132.833C59.1098 131.806 59.9451 130.98 60.982 130.98C62.0189 130.98 62.8542 131.806 62.8542 132.833Z" fill="white"/>
<path d="M74.7212 134.686C75.7552 134.686 76.5934 133.856 76.5934 132.833C76.5934 131.809 75.7552 130.98 74.7212 130.98C73.6872 130.98 72.849 131.809 72.849 132.833C72.849 133.856 73.6872 134.686 74.7212 134.686Z" fill="white"/>
<path d="M90.3039 132.833C90.3039 133.859 89.4686 134.686 88.4317 134.686C87.3947 134.686 86.5594 133.859 86.5594 132.833C86.5594 131.806 87.3947 130.98 88.4317 130.98C89.4686 130.98 90.3039 131.806 90.3039 132.833Z" fill="white"/>
<path d="M102.142 134.686C103.176 134.686 104.014 133.856 104.014 132.833C104.014 131.809 103.176 130.98 102.142 130.98C101.108 130.98 100.27 131.809 100.27 132.833C100.27 133.856 101.108 134.686 102.142 134.686Z" fill="white"/>
<path d="M115.881 134.686C116.915 134.686 117.754 133.856 117.754 132.833C117.754 131.809 116.915 130.98 115.881 130.98C114.847 130.98 114.009 131.809 114.009 132.833C114.009 133.856 114.847 134.686 115.881 134.686Z" fill="white"/>
<path d="M131.435 132.833C131.435 133.859 130.6 134.686 129.563 134.686C128.526 134.686 127.691 133.859 127.691 132.833C127.691 131.806 128.526 130.98 129.563 130.98C130.6 130.98 131.435 131.806 131.435 132.833Z" fill="white"/>
<path d="M143.302 134.686C144.336 134.686 145.174 133.856 145.174 132.833C145.174 131.809 144.336 130.98 143.302 130.98C142.268 130.98 141.43 131.809 141.43 132.833C141.43 133.856 142.268 134.686 143.302 134.686Z" fill="white"/>
<path d="M157.013 134.686C158.047 134.686 158.885 133.856 158.885 132.833C158.885 131.809 158.047 130.98 157.013 130.98C155.979 130.98 155.14 131.809 155.14 132.833C155.14 133.856 155.979 134.686 157.013 134.686Z" fill="white"/>
<path d="M172.595 132.833C172.595 133.859 171.76 134.686 170.723 134.686C169.686 134.686 168.851 133.859 168.851 132.833C168.851 131.806 169.686 130.98 170.723 130.98C171.76 130.98 172.595 131.806 172.595 132.833Z" fill="white"/>
<path d="M184.462 134.686C185.496 134.686 186.335 133.856 186.335 132.833C186.335 131.809 185.496 130.98 184.462 130.98C183.428 130.98 182.59 131.809 182.59 132.833C182.59 133.856 183.428 134.686 184.462 134.686Z" fill="white"/>
<path d="M198.173 134.686C199.207 134.686 200.045 133.856 200.045 132.833C200.045 131.809 199.207 130.98 198.173 130.98C197.139 130.98 196.3 131.809 196.3 132.833C196.3 133.856 197.139 134.686 198.173 134.686Z" fill="white"/>
<path d="M211.912 134.686C212.946 134.686 213.784 133.856 213.784 132.833C213.784 131.809 212.946 130.98 211.912 130.98C210.878 130.98 210.04 131.809 210.04 132.833C210.04 133.856 210.878 134.686 211.912 134.686Z" fill="white"/>
<path d="M225.622 134.686C226.656 134.686 227.495 133.856 227.495 132.833C227.495 131.809 226.656 130.98 225.622 130.98C224.588 130.98 223.75 131.809 223.75 132.833C223.75 133.856 224.588 134.686 225.622 134.686Z" fill="white"/>
<path d="M40.6756 142.839C41.7096 142.839 42.5478 142.009 42.5478 140.986C42.5478 139.962 41.7096 139.133 40.6756 139.133C39.6416 139.133 38.8034 139.962 38.8034 140.986C38.8034 142.009 39.6416 142.839 40.6756 142.839Z" fill="white"/>
<path d="M54.4148 142.839C55.4488 142.839 56.287 142.009 56.287 140.986C56.287 139.962 55.4488 139.133 54.4148 139.133C53.3808 139.133 52.5426 139.962 52.5426 140.986C52.5426 142.009 53.3808 142.839 54.4148 142.839Z" fill="white"/>
<path d="M69.9687 140.986C69.9687 142.012 69.1334 142.839 68.0965 142.839C67.0595 142.839 66.2242 142.012 66.2242 140.986C66.2242 139.96 67.0595 139.133 68.0965 139.133C69.1334 139.133 69.9687 139.96 69.9687 140.986Z" fill="white"/>
<path d="M83.7079 140.986C83.7079 142.012 82.8726 142.839 81.8357 142.839C80.7988 142.839 79.9635 142.012 79.9635 140.986C79.9635 139.96 80.7988 139.133 81.8357 139.133C82.8726 139.133 83.7079 139.96 83.7079 140.986Z" fill="white"/>
<path d="M95.5461 142.839C96.5801 142.839 97.4183 142.009 97.4183 140.986C97.4183 139.962 96.5801 139.133 95.5461 139.133C94.5121 139.133 93.6739 139.962 93.6739 140.986C93.6739 142.009 94.5121 142.839 95.5461 142.839Z" fill="white"/>
<path d="M109.285 142.839C110.319 142.839 111.158 142.009 111.158 140.986C111.158 139.962 110.319 139.133 109.285 139.133C108.251 139.133 107.413 139.962 107.413 140.986C107.413 142.009 108.251 142.839 109.285 142.839Z" fill="white"/>
<path d="M124.868 140.986C124.868 142.012 124.033 142.839 122.996 142.839C121.959 142.839 121.124 142.012 121.124 140.986C121.124 139.96 121.959 139.133 122.996 139.133C124.033 139.133 124.868 139.96 124.868 140.986Z" fill="white"/>
<path d="M136.706 142.839C137.74 142.839 138.578 142.009 138.578 140.986C138.578 139.962 137.74 139.133 136.706 139.133C135.672 139.133 134.834 139.962 134.834 140.986C134.834 142.009 135.672 142.839 136.706 142.839Z" fill="white"/>
<path d="M150.445 142.839C151.479 142.839 152.318 142.009 152.318 140.986C152.318 139.962 151.479 139.133 150.445 139.133C149.411 139.133 148.573 139.962 148.573 140.986C148.573 142.009 149.411 142.839 150.445 142.839Z" fill="white"/>
<path d="M164.156 142.839C165.19 142.839 166.028 142.009 166.028 140.986C166.028 139.962 165.19 139.133 164.156 139.133C163.122 139.133 162.284 139.962 162.284 140.986C162.284 142.009 163.122 142.839 164.156 142.839Z" fill="white"/>
<path d="M177.866 142.839C178.9 142.839 179.739 142.009 179.739 140.986C179.739 139.962 178.9 139.133 177.866 139.133C176.832 139.133 175.994 139.962 175.994 140.986C175.994 142.009 176.832 142.839 177.866 142.839Z" fill="white"/>
<path d="M191.577 142.839C192.611 142.839 193.449 142.009 193.449 140.986C193.449 139.962 192.611 139.133 191.577 139.133C190.543 139.133 189.704 139.962 189.704 140.986C189.704 142.009 190.543 142.839 191.577 142.839Z" fill="white"/>
<path d="M205.316 142.839C206.35 142.839 207.188 142.009 207.188 140.986C207.188 139.962 206.35 139.133 205.316 139.133C204.282 139.133 203.444 139.962 203.444 140.986C203.444 142.009 204.282 142.839 205.316 142.839Z" fill="white"/>
<path d="M219.026 142.839C220.06 142.839 220.899 142.009 220.899 140.986C220.899 139.962 220.06 139.133 219.026 139.133C217.992 139.133 217.154 139.962 217.154 140.986C217.154 142.009 217.992 142.839 219.026 142.839Z" fill="white"/>
<path d="M234.609 140.986C234.609 142.012 233.774 142.839 232.737 142.839C231.7 142.839 230.865 142.012 230.865 140.986C230.865 139.96 231.7 139.133 232.737 139.133C233.774 139.133 234.609 139.96 234.609 140.986Z" fill="white"/>
<path d="M33.5612 151.505C34.5952 151.505 35.4334 150.676 35.4334 149.652C35.4334 148.629 34.5952 147.799 33.5612 147.799C32.5272 147.799 31.6889 148.629 31.6889 149.652C31.6889 150.676 32.5272 151.505 33.5612 151.505Z" fill="white"/>
<path d="M49.1438 149.652C49.1438 150.679 48.3085 151.505 47.2716 151.505C46.2347 151.505 45.3994 150.679 45.3994 149.652C45.3994 148.626 46.2347 147.799 47.2716 147.799C48.3085 147.799 49.1438 148.626 49.1438 149.652Z" fill="white"/>
<path d="M62.8542 149.652C62.8542 150.679 62.0189 151.505 60.982 151.505C59.9451 151.505 59.1098 150.679 59.1098 149.652C59.1098 148.626 59.9451 147.799 60.982 147.799C62.0189 147.799 62.8542 148.626 62.8542 149.652Z" fill="white"/>
<path d="M74.7212 151.505C75.7552 151.505 76.5934 150.676 76.5934 149.652C76.5934 148.629 75.7552 147.799 74.7212 147.799C73.6872 147.799 72.849 148.629 72.849 149.652C72.849 150.676 73.6872 151.505 74.7212 151.505Z" fill="white"/>
<path d="M90.3039 149.652C90.3039 150.679 89.4686 151.505 88.4317 151.505C87.3947 151.505 86.5594 150.679 86.5594 149.652C86.5594 148.626 87.3947 147.799 88.4317 147.799C89.4686 147.799 90.3039 148.626 90.3039 149.652Z" fill="white"/>
<path d="M102.142 151.505C103.176 151.505 104.014 150.676 104.014 149.652C104.014 148.629 103.176 147.799 102.142 147.799C101.108 147.799 100.27 148.629 100.27 149.652C100.27 150.676 101.108 151.505 102.142 151.505Z" fill="white"/>
<path d="M115.881 151.505C116.915 151.505 117.754 150.676 117.754 149.652C117.754 148.629 116.915 147.799 115.881 147.799C114.847 147.799 114.009 148.629 114.009 149.652C114.009 150.676 114.847 151.505 115.881 151.505Z" fill="white"/>
<path d="M131.435 149.652C131.435 150.679 130.6 151.505 129.563 151.505C128.526 151.505 127.691 150.679 127.691 149.652C127.691 148.626 128.526 147.799 129.563 147.799C130.6 147.799 131.435 148.626 131.435 149.652Z" fill="white"/>
<path d="M143.302 151.505C144.336 151.505 145.174 150.676 145.174 149.652C145.174 148.629 144.336 147.799 143.302 147.799C142.268 147.799 141.43 148.629 141.43 149.652C141.43 150.676 142.268 151.505 143.302 151.505Z" fill="white"/>
<path d="M157.013 151.505C158.047 151.505 158.885 150.676 158.885 149.652C158.885 148.629 158.047 147.799 157.013 147.799C155.979 147.799 155.14 148.629 155.14 149.652C155.14 150.676 155.979 151.505 157.013 151.505Z" fill="white"/>
<path d="M172.595 149.652C172.595 150.679 171.76 151.505 170.723 151.505C169.686 151.505 168.851 150.679 168.851 149.652C168.851 148.626 169.686 147.799 170.723 147.799C171.76 147.799 172.595 148.626 172.595 149.652Z" fill="white"/>
<path d="M184.462 151.505C185.496 151.505 186.335 150.676 186.335 149.652C186.335 148.629 185.496 147.799 184.462 147.799C183.428 147.799 182.59 148.629 182.59 149.652C182.59 150.676 183.428 151.505 184.462 151.505Z" fill="white"/>
<path d="M198.173 151.505C199.207 151.505 200.045 150.676 200.045 149.652C200.045 148.629 199.207 147.799 198.173 147.799C197.139 147.799 196.3 148.629 196.3 149.652C196.3 150.676 197.139 151.505 198.173 151.505Z" fill="white"/>
<path d="M211.912 151.505C212.946 151.505 213.784 150.676 213.784 149.652C213.784 148.629 212.946 147.799 211.912 147.799C210.878 147.799 210.04 148.629 210.04 149.652C210.04 150.676 210.878 151.505 211.912 151.505Z" fill="white"/>
<path d="M225.622 151.505C226.656 151.505 227.495 150.676 227.495 149.652C227.495 148.629 226.656 147.799 225.622 147.799C224.588 147.799 223.75 148.629 223.75 149.652C223.75 150.676 224.588 151.505 225.622 151.505Z" fill="white"/>
<path d="M40.6756 159.63C41.7096 159.63 42.5478 158.801 42.5478 157.777C42.5478 156.754 41.7096 155.924 40.6756 155.924C39.6416 155.924 38.8034 156.754 38.8034 157.777C38.8034 158.801 39.6416 159.63 40.6756 159.63Z" fill="white"/>
<path d="M54.4148 159.63C55.4488 159.63 56.287 158.801 56.287 157.777C56.287 156.754 55.4488 155.924 54.4148 155.924C53.3808 155.924 52.5426 156.754 52.5426 157.777C52.5426 158.801 53.3808 159.63 54.4148 159.63Z" fill="white"/>
<path d="M69.9687 157.777C69.9687 158.804 69.1334 159.63 68.0965 159.63C67.0595 159.63 66.2242 158.804 66.2242 157.777C66.2242 156.751 67.0595 155.924 68.0965 155.924C69.1334 155.924 69.9687 156.751 69.9687 157.777Z" fill="white"/>
<path d="M83.7079 157.777C83.7079 158.804 82.8726 159.63 81.8357 159.63C80.7988 159.63 79.9635 158.804 79.9635 157.777C79.9635 156.751 80.7988 155.924 81.8357 155.924C82.8726 155.924 83.7079 156.751 83.7079 157.777Z" fill="white"/>
<path d="M95.5461 159.63C96.5801 159.63 97.4183 158.801 97.4183 157.777C97.4183 156.754 96.5801 155.924 95.5461 155.924C94.5121 155.924 93.6739 156.754 93.6739 157.777C93.6739 158.801 94.5121 159.63 95.5461 159.63Z" fill="white"/>
<path d="M109.285 159.63C110.319 159.63 111.158 158.801 111.158 157.777C111.158 156.754 110.319 155.924 109.285 155.924C108.251 155.924 107.413 156.754 107.413 157.777C107.413 158.801 108.251 159.63 109.285 159.63Z" fill="white"/>
<path d="M124.868 157.777C124.868 158.804 124.033 159.63 122.996 159.63C121.959 159.63 121.124 158.804 121.124 157.777C121.124 156.751 121.959 155.924 122.996 155.924C124.033 155.924 124.868 156.751 124.868 157.777Z" fill="white"/>
<path d="M136.706 159.63C137.74 159.63 138.578 158.801 138.578 157.777C138.578 156.754 137.74 155.924 136.706 155.924C135.672 155.924 134.834 156.754 134.834 157.777C134.834 158.801 135.672 159.63 136.706 159.63Z" fill="white"/>
<path d="M150.445 159.63C151.479 159.63 152.318 158.801 152.318 157.777C152.318 156.754 151.479 155.924 150.445 155.924C149.411 155.924 148.573 156.754 148.573 157.777C148.573 158.801 149.411 159.63 150.445 159.63Z" fill="white"/>
<path d="M164.156 159.63C165.19 159.63 166.028 158.801 166.028 157.777C166.028 156.754 165.19 155.924 164.156 155.924C163.122 155.924 162.284 156.754 162.284 157.777C162.284 158.801 163.122 159.63 164.156 159.63Z" fill="white"/>
<path d="M177.866 159.63C178.9 159.63 179.739 158.801 179.739 157.777C179.739 156.754 178.9 155.924 177.866 155.924C176.832 155.924 175.994 156.754 175.994 157.777C175.994 158.801 176.832 159.63 177.866 159.63Z" fill="white"/>
<path d="M191.577 159.63C192.611 159.63 193.449 158.801 193.449 157.777C193.449 156.754 192.611 155.924 191.577 155.924C190.543 155.924 189.704 156.754 189.704 157.777C189.704 158.801 190.543 159.63 191.577 159.63Z" fill="white"/>
<path d="M205.316 159.63C206.35 159.63 207.188 158.801 207.188 157.777C207.188 156.754 206.35 155.924 205.316 155.924C204.282 155.924 203.444 156.754 203.444 157.777C203.444 158.801 204.282 159.63 205.316 159.63Z" fill="white"/>
<path d="M219.026 159.63C220.06 159.63 220.899 158.801 220.899 157.777C220.899 156.754 220.06 155.924 219.026 155.924C217.992 155.924 217.154 156.754 217.154 157.777C217.154 158.801 217.992 159.63 219.026 159.63Z" fill="white"/>
<path d="M234.609 157.777C234.609 158.804 233.774 159.63 232.737 159.63C231.7 159.63 230.865 158.804 230.865 157.777C230.865 156.751 231.7 155.924 232.737 155.924C233.774 155.924 234.609 156.751 234.609 157.777Z" fill="white"/>
<path d="M35.4046 166.444C35.4046 167.47 34.5693 168.297 33.5323 168.297C32.4954 168.297 31.6601 167.47 31.6601 166.444C31.6601 165.418 32.4954 164.591 33.5323 164.591C34.5693 164.591 35.4046 165.418 35.4046 166.444Z" fill="white"/>
<path d="M49.1438 166.444C49.1438 167.47 48.3085 168.297 47.2716 168.297C46.2347 168.297 45.3994 167.47 45.3994 166.444C45.3994 165.418 46.2347 164.591 47.2716 164.591C48.3085 164.591 49.1438 165.418 49.1438 166.444Z" fill="white"/>
<path d="M62.8542 166.444C62.8542 167.47 62.0189 168.297 60.982 168.297C59.9451 168.297 59.1098 167.47 59.1098 166.444C59.1098 165.418 59.9451 164.591 60.982 164.591C62.0189 164.591 62.8542 165.418 62.8542 166.444Z" fill="white"/>
<path d="M76.5647 166.444C76.5647 167.47 75.7294 168.297 74.6924 168.297C73.6555 168.297 72.8202 167.47 72.8202 166.444C72.8202 165.418 73.6555 164.591 74.6924 164.591C75.7294 164.591 76.5647 165.418 76.5647 166.444Z" fill="white"/>
<path d="M90.3039 166.444C90.3039 167.47 89.4686 168.297 88.4317 168.297C87.3947 168.297 86.5594 167.47 86.5594 166.444C86.5594 165.418 87.3947 164.591 88.4317 164.591C89.4686 164.591 90.3039 165.418 90.3039 166.444Z" fill="white"/>
<path d="M104.014 166.444C104.014 167.47 103.179 168.297 102.142 168.297C101.105 168.297 100.27 167.47 100.27 166.444C100.27 165.418 101.105 164.591 102.142 164.591C103.179 164.591 104.014 165.418 104.014 166.444Z" fill="white"/>
<path d="M117.725 166.444C117.725 167.47 116.889 168.297 115.853 168.297C114.816 168.297 113.98 167.47 113.98 166.444C113.98 165.418 114.816 164.591 115.853 164.591C116.889 164.591 117.725 165.418 117.725 166.444Z" fill="white"/>
<path d="M131.435 166.444C131.435 167.47 130.6 168.297 129.563 168.297C128.526 168.297 127.691 167.47 127.691 166.444C127.691 165.418 128.526 164.591 129.563 164.591C130.6 164.591 131.435 165.418 131.435 166.444Z" fill="white"/>
<path d="M145.174 166.444C145.174 167.47 144.339 168.297 143.302 168.297C142.265 168.297 141.43 167.47 141.43 166.444C141.43 165.418 142.265 164.591 143.302 164.591C144.339 164.591 145.174 165.418 145.174 166.444Z" fill="white"/>
<path d="M158.885 166.444C158.885 167.47 158.05 168.297 157.013 168.297C155.976 168.297 155.14 167.47 155.14 166.444C155.14 165.418 155.976 164.591 157.013 164.591C158.05 164.591 158.885 165.418 158.885 166.444Z" fill="white"/>
<path d="M172.595 166.444C172.595 167.47 171.76 168.297 170.723 168.297C169.686 168.297 168.851 167.47 168.851 166.444C168.851 165.418 169.686 164.591 170.723 164.591C171.76 164.591 172.595 165.418 172.595 166.444Z" fill="white"/>
<path d="M186.335 166.444C186.335 167.47 185.499 168.297 184.462 168.297C183.425 168.297 182.59 167.47 182.59 166.444C182.59 165.418 183.425 164.591 184.462 164.591C185.499 164.591 186.335 165.418 186.335 166.444Z" fill="white"/>
<path d="M200.045 166.444C200.045 167.47 199.21 168.297 198.173 168.297C197.136 168.297 196.3 167.47 196.3 166.444C196.3 165.418 197.136 164.591 198.173 164.591C199.21 164.591 200.045 165.418 200.045 166.444Z" fill="white"/>
<path d="M213.755 166.444C213.755 167.47 212.92 168.297 211.883 168.297C210.846 168.297 210.011 167.47 210.011 166.444C210.011 165.418 210.846 164.591 211.883 164.591C212.92 164.591 213.755 165.418 213.755 166.444Z" fill="white"/>
<path d="M227.466 166.444C227.466 167.47 226.63 168.297 225.594 168.297C224.557 168.297 223.721 167.47 223.721 166.444C223.721 165.418 224.557 164.591 225.594 164.591C226.63 164.591 227.466 165.418 227.466 166.444Z" fill="white"/>
<path d="M42.5478 174.597C42.5478 175.623 41.7125 176.45 40.6756 176.45C39.6387 176.45 38.8034 175.623 38.8034 174.597C38.8034 173.571 39.6387 172.744 40.6756 172.744C41.7125 172.744 42.5478 173.571 42.5478 174.597Z" fill="white"/>
<path d="M56.2582 174.597C56.2582 175.623 55.4229 176.45 54.386 176.45C53.3491 176.45 52.5138 175.623 52.5138 174.597C52.5138 173.571 53.3491 172.744 54.386 172.744C55.4229 172.744 56.2582 173.571 56.2582 174.597Z" fill="white"/>
<path d="M69.9687 174.597C69.9687 175.623 69.1334 176.45 68.0965 176.45C67.0595 176.45 66.2242 175.623 66.2242 174.597C66.2242 173.571 67.0595 172.744 68.0965 172.744C69.1334 172.744 69.9687 173.571 69.9687 174.597Z" fill="white"/>
<path d="M83.7079 174.597C83.7079 175.623 82.8726 176.45 81.8357 176.45C80.7988 176.45 79.9635 175.623 79.9635 174.597C79.9635 173.571 80.7988 172.744 81.8357 172.744C82.8726 172.744 83.7079 173.571 83.7079 174.597Z" fill="white"/>
<path d="M97.4183 174.597C97.4183 175.623 96.583 176.45 95.5461 176.45C94.5092 176.45 93.6739 175.623 93.6739 174.597C93.6739 173.571 94.5092 172.744 95.5461 172.744C96.583 172.744 97.4183 173.571 97.4183 174.597Z" fill="white"/>
<path d="M111.129 174.597C111.129 175.623 110.293 176.45 109.257 176.45C108.22 176.45 107.384 175.623 107.384 174.597C107.384 173.571 108.22 172.744 109.257 172.744C110.293 172.744 111.129 173.571 111.129 174.597Z" fill="white"/>
<path d="M124.868 174.597C124.868 175.623 124.033 176.45 122.996 176.45C121.959 176.45 121.124 175.623 121.124 174.597C121.124 173.571 121.959 172.744 122.996 172.744C124.033 172.744 124.868 173.571 124.868 174.597Z" fill="white"/>
<path d="M138.578 174.597C138.578 175.623 137.743 176.45 136.706 176.45C135.669 176.45 134.834 175.623 134.834 174.597C134.834 173.571 135.669 172.744 136.706 172.744C137.743 172.744 138.578 173.571 138.578 174.597Z" fill="white"/>
<path d="M152.289 174.597C152.289 175.623 151.454 176.45 150.417 176.45C149.38 176.45 148.544 175.623 148.544 174.597C148.544 173.571 149.38 172.744 150.417 172.744C151.454 172.744 152.289 173.571 152.289 174.597Z" fill="white"/>
<path d="M165.999 174.597C165.999 175.623 165.164 176.45 164.127 176.45C163.09 176.45 162.255 175.623 162.255 174.597C162.255 173.571 163.09 172.744 164.127 172.744C165.164 172.744 165.999 173.571 165.999 174.597Z" fill="white"/>
<path d="M179.739 174.597C179.739 175.623 178.903 176.45 177.866 176.45C176.829 176.45 175.994 175.623 175.994 174.597C175.994 173.571 176.829 172.744 177.866 172.744C178.903 172.744 179.739 173.571 179.739 174.597Z" fill="white"/>
<path d="M193.449 174.597C193.449 175.623 192.614 176.45 191.577 176.45C190.54 176.45 189.704 175.623 189.704 174.597C189.704 173.571 190.54 172.744 191.577 172.744C192.614 172.744 193.449 173.571 193.449 174.597Z" fill="white"/>
<path d="M207.159 174.597C207.159 175.623 206.324 176.45 205.287 176.45C204.25 176.45 203.415 175.623 203.415 174.597C203.415 173.571 204.25 172.744 205.287 172.744C206.324 172.744 207.159 173.571 207.159 174.597Z" fill="white"/>
<path d="M220.899 174.597C220.899 175.623 220.063 176.45 219.026 176.45C217.989 176.45 217.154 175.623 217.154 174.597C217.154 173.571 217.989 172.744 219.026 172.744C220.063 172.744 220.899 173.571 220.899 174.597Z" fill="white"/>
<path d="M234.609 174.597C234.609 175.623 233.774 176.45 232.737 176.45C231.7 176.45 230.865 175.623 230.865 174.597C230.865 173.571 231.7 172.744 232.737 172.744C233.774 172.744 234.609 173.571 234.609 174.597Z" fill="white"/>
<path d="M33.5612 185.117C34.5952 185.117 35.4334 184.287 35.4334 183.264C35.4334 182.24 34.5952 181.411 33.5612 181.411C32.5272 181.411 31.6889 182.24 31.6889 183.264C31.6889 184.287 32.5272 185.117 33.5612 185.117Z" fill="white"/>
<path d="M49.1438 183.264C49.1438 184.29 48.3085 185.117 47.2716 185.117C46.2347 185.117 45.3994 184.29 45.3994 183.264C45.3994 182.237 46.2347 181.411 47.2716 181.411C48.3085 181.411 49.1438 182.237 49.1438 183.264Z" fill="white"/>
<path d="M62.8542 183.264C62.8542 184.29 62.0189 185.117 60.982 185.117C59.9451 185.117 59.1098 184.29 59.1098 183.264C59.1098 182.237 59.9451 181.411 60.982 181.411C62.0189 181.411 62.8542 182.237 62.8542 183.264Z" fill="white"/>
<path d="M74.7212 185.117C75.7552 185.117 76.5934 184.287 76.5934 183.264C76.5934 182.24 75.7552 181.411 74.7212 181.411C73.6872 181.411 72.849 182.24 72.849 183.264C72.849 184.287 73.6872 185.117 74.7212 185.117Z" fill="white"/>
<path d="M90.3039 183.264C90.3039 184.29 89.4686 185.117 88.4317 185.117C87.3947 185.117 86.5594 184.29 86.5594 183.264C86.5594 182.237 87.3947 181.411 88.4317 181.411C89.4686 181.411 90.3039 182.237 90.3039 183.264Z" fill="white"/>
<path d="M102.142 185.117C103.176 185.117 104.014 184.287 104.014 183.264C104.014 182.24 103.176 181.411 102.142 181.411C101.108 181.411 100.27 182.24 100.27 183.264C100.27 184.287 101.108 185.117 102.142 185.117Z" fill="white"/>
<path d="M115.881 185.117C116.915 185.117 117.754 184.287 117.754 183.264C117.754 182.24 116.915 181.411 115.881 181.411C114.847 181.411 114.009 182.24 114.009 183.264C114.009 184.287 114.847 185.117 115.881 185.117Z" fill="white"/>
<path d="M131.435 183.264C131.435 184.29 130.6 185.117 129.563 185.117C128.526 185.117 127.691 184.29 127.691 183.264C127.691 182.237 128.526 181.411 129.563 181.411C130.6 181.411 131.435 182.237 131.435 183.264Z" fill="white"/>
<path d="M143.302 185.117C144.336 185.117 145.174 184.287 145.174 183.264C145.174 182.24 144.336 181.411 143.302 181.411C142.268 181.411 141.43 182.24 141.43 183.264C141.43 184.287 142.268 185.117 143.302 185.117Z" fill="white"/>
<path d="M157.013 185.117C158.047 185.117 158.885 184.287 158.885 183.264C158.885 182.24 158.047 181.411 157.013 181.411C155.979 181.411 155.14 182.24 155.14 183.264C155.14 184.287 155.979 185.117 157.013 185.117Z" fill="white"/>
<path d="M172.595 183.264C172.595 184.29 171.76 185.117 170.723 185.117C169.686 185.117 168.851 184.29 168.851 183.264C168.851 182.237 169.686 181.411 170.723 181.411C171.76 181.411 172.595 182.237 172.595 183.264Z" fill="white"/>
<path d="M184.462 185.117C185.496 185.117 186.335 184.287 186.335 183.264C186.335 182.24 185.496 181.411 184.462 181.411C183.428 181.411 182.59 182.24 182.59 183.264C182.59 184.287 183.428 185.117 184.462 185.117Z" fill="white"/>
<path d="M198.173 185.117C199.207 185.117 200.045 184.287 200.045 183.264C200.045 182.24 199.207 181.411 198.173 181.411C197.139 181.411 196.3 182.24 196.3 183.264C196.3 184.287 197.139 185.117 198.173 185.117Z" fill="white"/>
<path d="M211.912 185.117C212.946 185.117 213.784 184.287 213.784 183.264C213.784 182.24 212.946 181.411 211.912 181.411C210.878 181.411 210.04 182.24 210.04 183.264C210.04 184.287 210.878 185.117 211.912 185.117Z" fill="white"/>
<path d="M225.622 185.117C226.656 185.117 227.495 184.287 227.495 183.264C227.495 182.24 226.656 181.411 225.622 181.411C224.588 181.411 223.75 182.24 223.75 183.264C223.75 184.287 224.588 185.117 225.622 185.117Z" fill="white"/>
<path d="M40.6756 193.241C41.7096 193.241 42.5478 192.412 42.5478 191.388C42.5478 190.365 41.7096 189.535 40.6756 189.535C39.6416 189.535 38.8034 190.365 38.8034 191.388C38.8034 192.412 39.6416 193.241 40.6756 193.241Z" fill="white"/>
<path d="M54.4148 193.241C55.4488 193.241 56.287 192.412 56.287 191.388C56.287 190.365 55.4488 189.535 54.4148 189.535C53.3808 189.535 52.5426 190.365 52.5426 191.388C52.5426 192.412 53.3808 193.241 54.4148 193.241Z" fill="white"/>
<path d="M69.9687 191.388C69.9687 192.414 69.1334 193.241 68.0965 193.241C67.0595 193.241 66.2242 192.414 66.2242 191.388C66.2242 190.362 67.0595 189.535 68.0965 189.535C69.1334 189.535 69.9687 190.362 69.9687 191.388Z" fill="white"/>
<path d="M83.7079 191.388C83.7079 192.414 82.8726 193.241 81.8357 193.241C80.7988 193.241 79.9635 192.414 79.9635 191.388C79.9635 190.362 80.7988 189.535 81.8357 189.535C82.8726 189.535 83.7079 190.362 83.7079 191.388Z" fill="white"/>
<path d="M95.5461 193.241C96.5801 193.241 97.4183 192.412 97.4183 191.388C97.4183 190.365 96.5801 189.535 95.5461 189.535C94.5121 189.535 93.6739 190.365 93.6739 191.388C93.6739 192.412 94.5121 193.241 95.5461 193.241Z" fill="white"/>
<path d="M109.285 193.241C110.319 193.241 111.158 192.412 111.158 191.388C111.158 190.365 110.319 189.535 109.285 189.535C108.251 189.535 107.413 190.365 107.413 191.388C107.413 192.412 108.251 193.241 109.285 193.241Z" fill="white"/>
<path d="M124.868 191.388C124.868 192.414 124.033 193.241 122.996 193.241C121.959 193.241 121.124 192.414 121.124 191.388C121.124 190.362 121.959 189.535 122.996 189.535C124.033 189.535 124.868 190.362 124.868 191.388Z" fill="white"/>
<path d="M136.706 193.241C137.74 193.241 138.578 192.412 138.578 191.388C138.578 190.365 137.74 189.535 136.706 189.535C135.672 189.535 134.834 190.365 134.834 191.388C134.834 192.412 135.672 193.241 136.706 193.241Z" fill="white"/>
<path d="M150.445 193.241C151.479 193.241 152.318 192.412 152.318 191.388C152.318 190.365 151.479 189.535 150.445 189.535C149.411 189.535 148.573 190.365 148.573 191.388C148.573 192.412 149.411 193.241 150.445 193.241Z" fill="white"/>
<path d="M164.156 193.241C165.19 193.241 166.028 192.412 166.028 191.388C166.028 190.365 165.19 189.535 164.156 189.535C163.122 189.535 162.284 190.365 162.284 191.388C162.284 192.412 163.122 193.241 164.156 193.241Z" fill="white"/>
<path d="M177.866 193.241C178.9 193.241 179.739 192.412 179.739 191.388C179.739 190.365 178.9 189.535 177.866 189.535C176.832 189.535 175.994 190.365 175.994 191.388C175.994 192.412 176.832 193.241 177.866 193.241Z" fill="white"/>
<path d="M191.577 193.241C192.611 193.241 193.449 192.412 193.449 191.388C193.449 190.365 192.611 189.535 191.577 189.535C190.543 189.535 189.704 190.365 189.704 191.388C189.704 192.412 190.543 193.241 191.577 193.241Z" fill="white"/>
<path d="M205.316 193.241C206.35 193.241 207.188 192.412 207.188 191.388C207.188 190.365 206.35 189.535 205.316 189.535C204.282 189.535 203.444 190.365 203.444 191.388C203.444 192.412 204.282 193.241 205.316 193.241Z" fill="white"/>
<path d="M219.026 193.241C220.06 193.241 220.899 192.412 220.899 191.388C220.899 190.365 220.06 189.535 219.026 189.535C217.992 189.535 217.154 190.365 217.154 191.388C217.154 192.412 217.992 193.241 219.026 193.241Z" fill="white"/>
<path d="M234.609 191.388C234.609 192.414 233.774 193.241 232.737 193.241C231.7 193.241 230.865 192.414 230.865 191.388C230.865 190.362 231.7 189.535 232.737 189.535C233.774 189.535 234.609 190.362 234.609 191.388Z" fill="white"/>
<path d="M33.5612 201.908C34.5952 201.908 35.4334 201.078 35.4334 200.055C35.4334 199.031 34.5952 198.202 33.5612 198.202C32.5272 198.202 31.6889 199.031 31.6889 200.055C31.6889 201.078 32.5272 201.908 33.5612 201.908Z" fill="white"/>
<path d="M49.1438 200.055C49.1438 201.081 48.3085 201.908 47.2716 201.908C46.2347 201.908 45.3994 201.081 45.3994 200.055C45.3994 199.028 46.2347 198.202 47.2716 198.202C48.3085 198.202 49.1438 199.028 49.1438 200.055Z" fill="white"/>
<path d="M62.8542 200.055C62.8542 201.081 62.0189 201.908 60.982 201.908C59.9451 201.908 59.1098 201.081 59.1098 200.055C59.1098 199.028 59.9451 198.202 60.982 198.202C62.0189 198.202 62.8542 199.028 62.8542 200.055Z" fill="white"/>
<path d="M74.7212 201.908C75.7552 201.908 76.5934 201.078 76.5934 200.055C76.5934 199.031 75.7552 198.202 74.7212 198.202C73.6872 198.202 72.849 199.031 72.849 200.055C72.849 201.078 73.6872 201.908 74.7212 201.908Z" fill="white"/>
<path d="M90.3039 200.055C90.3039 201.081 89.4686 201.908 88.4317 201.908C87.3947 201.908 86.5594 201.081 86.5594 200.055C86.5594 199.028 87.3947 198.202 88.4317 198.202C89.4686 198.202 90.3039 199.028 90.3039 200.055Z" fill="white"/>
<path d="M102.142 201.908C103.176 201.908 104.014 201.078 104.014 200.055C104.014 199.031 103.176 198.202 102.142 198.202C101.108 198.202 100.27 199.031 100.27 200.055C100.27 201.078 101.108 201.908 102.142 201.908Z" fill="white"/>
<path d="M115.881 201.908C116.915 201.908 117.754 201.078 117.754 200.055C117.754 199.031 116.915 198.202 115.881 198.202C114.847 198.202 114.009 199.031 114.009 200.055C114.009 201.078 114.847 201.908 115.881 201.908Z" fill="white"/>
<path d="M131.435 200.055C131.435 201.081 130.6 201.908 129.563 201.908C128.526 201.908 127.691 201.081 127.691 200.055C127.691 199.028 128.526 198.202 129.563 198.202C130.6 198.202 131.435 199.028 131.435 200.055Z" fill="white"/>
<path d="M143.302 201.908C144.336 201.908 145.174 201.078 145.174 200.055C145.174 199.031 144.336 198.202 143.302 198.202C142.268 198.202 141.43 199.031 141.43 200.055C141.43 201.078 142.268 201.908 143.302 201.908Z" fill="white"/>
<path d="M157.013 201.908C158.047 201.908 158.885 201.078 158.885 200.055C158.885 199.031 158.047 198.202 157.013 198.202C155.979 198.202 155.14 199.031 155.14 200.055C155.14 201.078 155.979 201.908 157.013 201.908Z" fill="white"/>
<path d="M172.595 200.055C172.595 201.081 171.76 201.908 170.723 201.908C169.686 201.908 168.851 201.081 168.851 200.055C168.851 199.028 169.686 198.202 170.723 198.202C171.76 198.202 172.595 199.028 172.595 200.055Z" fill="white"/>
<path d="M184.462 201.908C185.496 201.908 186.335 201.078 186.335 200.055C186.335 199.031 185.496 198.202 184.462 198.202C183.428 198.202 182.59 199.031 182.59 200.055C182.59 201.078 183.428 201.908 184.462 201.908Z" fill="white"/>
<path d="M198.173 201.908C199.207 201.908 200.045 201.078 200.045 200.055C200.045 199.031 199.207 198.202 198.173 198.202C197.139 198.202 196.3 199.031 196.3 200.055C196.3 201.078 197.139 201.908 198.173 201.908Z" fill="white"/>
<path d="M211.912 201.908C212.946 201.908 213.784 201.078 213.784 200.055C213.784 199.031 212.946 198.202 211.912 198.202C210.878 198.202 210.04 199.031 210.04 200.055C210.04 201.078 210.878 201.908 211.912 201.908Z" fill="white"/>
<path d="M225.622 201.908C226.656 201.908 227.495 201.078 227.495 200.055C227.495 199.031 226.656 198.202 225.622 198.202C224.588 198.202 223.75 199.031 223.75 200.055C223.75 201.078 224.588 201.908 225.622 201.908Z" fill="white"/>
<path d="M40.6756 210.061C41.7096 210.061 42.5478 209.231 42.5478 208.208C42.5478 207.184 41.7096 206.355 40.6756 206.355C39.6416 206.355 38.8034 207.184 38.8034 208.208C38.8034 209.231 39.6416 210.061 40.6756 210.061Z" fill="white"/>
<path d="M54.4148 210.061C55.4488 210.061 56.287 209.231 56.287 208.208C56.287 207.184 55.4488 206.355 54.4148 206.355C53.3808 206.355 52.5426 207.184 52.5426 208.208C52.5426 209.231 53.3808 210.061 54.4148 210.061Z" fill="white"/>
<path d="M69.9687 208.208C69.9687 209.234 69.1334 210.061 68.0965 210.061C67.0595 210.061 66.2242 209.234 66.2242 208.208C66.2242 207.181 67.0595 206.355 68.0965 206.355C69.1334 206.355 69.9687 207.181 69.9687 208.208Z" fill="white"/>
<path d="M83.7079 208.208C83.7079 209.234 82.8726 210.061 81.8357 210.061C80.7988 210.061 79.9635 209.234 79.9635 208.208C79.9635 207.181 80.7988 206.355 81.8357 206.355C82.8726 206.355 83.7079 207.181 83.7079 208.208Z" fill="white"/>
<path d="M95.5461 210.061C96.5801 210.061 97.4183 209.231 97.4183 208.208C97.4183 207.184 96.5801 206.355 95.5461 206.355C94.5121 206.355 93.6739 207.184 93.6739 208.208C93.6739 209.231 94.5121 210.061 95.5461 210.061Z" fill="white"/>
<path d="M109.285 210.061C110.319 210.061 111.158 209.231 111.158 208.208C111.158 207.184 110.319 206.355 109.285 206.355C108.251 206.355 107.413 207.184 107.413 208.208C107.413 209.231 108.251 210.061 109.285 210.061Z" fill="white"/>
<path d="M124.868 208.208C124.868 209.234 124.033 210.061 122.996 210.061C121.959 210.061 121.124 209.234 121.124 208.208C121.124 207.181 121.959 206.355 122.996 206.355C124.033 206.355 124.868 207.181 124.868 208.208Z" fill="white"/>
<path d="M136.706 210.061C137.74 210.061 138.578 209.231 138.578 208.208C138.578 207.184 137.74 206.355 136.706 206.355C135.672 206.355 134.834 207.184 134.834 208.208C134.834 209.231 135.672 210.061 136.706 210.061Z" fill="white"/>
<path d="M150.445 210.061C151.479 210.061 152.318 209.231 152.318 208.208C152.318 207.184 151.479 206.355 150.445 206.355C149.411 206.355 148.573 207.184 148.573 208.208C148.573 209.231 149.411 210.061 150.445 210.061Z" fill="white"/>
<path d="M164.156 210.061C165.19 210.061 166.028 209.231 166.028 208.208C166.028 207.184 165.19 206.355 164.156 206.355C163.122 206.355 162.284 207.184 162.284 208.208C162.284 209.231 163.122 210.061 164.156 210.061Z" fill="white"/>
<path d="M177.866 210.061C178.9 210.061 179.739 209.231 179.739 208.208C179.739 207.184 178.9 206.355 177.866 206.355C176.832 206.355 175.994 207.184 175.994 208.208C175.994 209.231 176.832 210.061 177.866 210.061Z" fill="white"/>
<path d="M191.577 210.061C192.611 210.061 193.449 209.231 193.449 208.208C193.449 207.184 192.611 206.355 191.577 206.355C190.543 206.355 189.704 207.184 189.704 208.208C189.704 209.231 190.543 210.061 191.577 210.061Z" fill="white"/>
<path d="M205.316 210.061C206.35 210.061 207.188 209.231 207.188 208.208C207.188 207.184 206.35 206.355 205.316 206.355C204.282 206.355 203.444 207.184 203.444 208.208C203.444 209.231 204.282 210.061 205.316 210.061Z" fill="white"/>
<path d="M219.026 210.061C220.06 210.061 220.899 209.231 220.899 208.208C220.899 207.184 220.06 206.355 219.026 206.355C217.992 206.355 217.154 207.184 217.154 208.208C217.154 209.231 217.992 210.061 219.026 210.061Z" fill="white"/>
<path d="M234.609 208.208C234.609 209.234 233.774 210.061 232.737 210.061C231.7 210.061 230.865 209.234 230.865 208.208C230.865 207.181 231.7 206.355 232.737 206.355C233.774 206.355 234.609 207.181 234.609 208.208Z" fill="white"/>
<path d="M35.4046 216.875C35.4046 217.901 34.5693 218.728 33.5323 218.728C32.4954 218.728 31.6601 217.901 31.6601 216.875C31.6601 215.848 32.4954 215.022 33.5323 215.022C34.5693 215.022 35.4046 215.848 35.4046 216.875Z" fill="white"/>
<path d="M49.1438 216.875C49.1438 217.901 48.3085 218.728 47.2716 218.728C46.2347 218.728 45.3994 217.901 45.3994 216.875C45.3994 215.848 46.2347 215.022 47.2716 215.022C48.3085 215.022 49.1438 215.848 49.1438 216.875Z" fill="white"/>
<path d="M62.8542 216.875C62.8542 217.901 62.0189 218.728 60.982 218.728C59.9451 218.728 59.1098 217.901 59.1098 216.875C59.1098 215.848 59.9451 215.022 60.982 215.022C62.0189 215.022 62.8542 215.848 62.8542 216.875Z" fill="white"/>
<path d="M76.5647 216.875C76.5647 217.901 75.7294 218.728 74.6924 218.728C73.6555 218.728 72.8202 217.901 72.8202 216.875C72.8202 215.848 73.6555 215.022 74.6924 215.022C75.7294 215.022 76.5647 215.848 76.5647 216.875Z" fill="white"/>
<path d="M90.3039 216.875C90.3039 217.901 89.4686 218.728 88.4317 218.728C87.3947 218.728 86.5594 217.901 86.5594 216.875C86.5594 215.848 87.3947 215.022 88.4317 215.022C89.4686 215.022 90.3039 215.848 90.3039 216.875Z" fill="white"/>
<path d="M104.014 216.875C104.014 217.901 103.179 218.728 102.142 218.728C101.105 218.728 100.27 217.901 100.27 216.875C100.27 215.848 101.105 215.022 102.142 215.022C103.179 215.022 104.014 215.848 104.014 216.875Z" fill="white"/>
<path d="M117.725 216.875C117.725 217.901 116.889 218.728 115.853 218.728C114.816 218.728 113.98 217.901 113.98 216.875C113.98 215.848 114.816 215.022 115.853 215.022C116.889 215.022 117.725 215.848 117.725 216.875Z" fill="white"/>
<path d="M131.435 216.875C131.435 217.901 130.6 218.728 129.563 218.728C128.526 218.728 127.691 217.901 127.691 216.875C127.691 215.848 128.526 215.022 129.563 215.022C130.6 215.022 131.435 215.848 131.435 216.875Z" fill="white"/>
<path d="M145.174 216.875C145.174 217.901 144.339 218.728 143.302 218.728C142.265 218.728 141.43 217.901 141.43 216.875C141.43 215.848 142.265 215.022 143.302 215.022C144.339 215.022 145.174 215.848 145.174 216.875Z" fill="white"/>
<path d="M158.885 216.875C158.885 217.901 158.05 218.728 157.013 218.728C155.976 218.728 155.14 217.901 155.14 216.875C155.14 215.848 155.976 215.022 157.013 215.022C158.05 215.022 158.885 215.848 158.885 216.875Z" fill="white"/>
<path d="M172.595 216.875C172.595 217.901 171.76 218.728 170.723 218.728C169.686 218.728 168.851 217.901 168.851 216.875C168.851 215.848 169.686 215.022 170.723 215.022C171.76 215.022 172.595 215.848 172.595 216.875Z" fill="white"/>
<path d="M186.335 216.875C186.335 217.901 185.499 218.728 184.462 218.728C183.425 218.728 182.59 217.901 182.59 216.875C182.59 215.848 183.425 215.022 184.462 215.022C185.499 215.022 186.335 215.848 186.335 216.875Z" fill="white"/>
<path d="M200.045 216.875C200.045 217.901 199.21 218.728 198.173 218.728C197.136 218.728 196.3 217.901 196.3 216.875C196.3 215.848 197.136 215.022 198.173 215.022C199.21 215.022 200.045 215.848 200.045 216.875Z" fill="white"/>
<path d="M213.755 216.875C213.755 217.901 212.92 218.728 211.883 218.728C210.846 218.728 210.011 217.901 210.011 216.875C210.011 215.848 210.846 215.022 211.883 215.022C212.92 215.022 213.755 215.848 213.755 216.875Z" fill="white"/>
<path d="M227.466 216.875C227.466 217.901 226.63 218.728 225.594 218.728C224.557 218.728 223.721 217.901 223.721 216.875C223.721 215.848 224.557 215.022 225.594 215.022C226.63 215.022 227.466 215.848 227.466 216.875Z" fill="white"/>
<path d="M40.6756 226.852C41.7096 226.852 42.5478 226.023 42.5478 224.999C42.5478 223.976 41.7096 223.146 40.6756 223.146C39.6416 223.146 38.8034 223.976 38.8034 224.999C38.8034 226.023 39.6416 226.852 40.6756 226.852Z" fill="white"/>
<path d="M54.4148 226.852C55.4488 226.852 56.287 226.023 56.287 224.999C56.287 223.976 55.4488 223.146 54.4148 223.146C53.3808 223.146 52.5426 223.976 52.5426 224.999C52.5426 226.023 53.3808 226.852 54.4148 226.852Z" fill="white"/>
<path d="M69.9687 224.999C69.9687 226.026 69.1334 226.852 68.0965 226.852C67.0595 226.852 66.2242 226.026 66.2242 224.999C66.2242 223.973 67.0595 223.146 68.0965 223.146C69.1334 223.146 69.9687 223.973 69.9687 224.999Z" fill="white"/>
<path d="M83.7079 224.999C83.7079 226.026 82.8726 226.852 81.8357 226.852C80.7988 226.852 79.9635 226.026 79.9635 224.999C79.9635 223.973 80.7988 223.146 81.8357 223.146C82.8726 223.146 83.7079 223.973 83.7079 224.999Z" fill="white"/>
<path d="M95.5461 226.852C96.5801 226.852 97.4183 226.023 97.4183 224.999C97.4183 223.976 96.5801 223.146 95.5461 223.146C94.5121 223.146 93.6739 223.976 93.6739 224.999C93.6739 226.023 94.5121 226.852 95.5461 226.852Z" fill="white"/>
<path d="M109.285 226.852C110.319 226.852 111.158 226.023 111.158 224.999C111.158 223.976 110.319 223.146 109.285 223.146C108.251 223.146 107.413 223.976 107.413 224.999C107.413 226.023 108.251 226.852 109.285 226.852Z" fill="white"/>
<path d="M124.868 224.999C124.868 226.026 124.033 226.852 122.996 226.852C121.959 226.852 121.124 226.026 121.124 224.999C121.124 223.973 121.959 223.146 122.996 223.146C124.033 223.146 124.868 223.973 124.868 224.999Z" fill="white"/>
<path d="M136.706 226.852C137.74 226.852 138.578 226.023 138.578 224.999C138.578 223.976 137.74 223.146 136.706 223.146C135.672 223.146 134.834 223.976 134.834 224.999C134.834 226.023 135.672 226.852 136.706 226.852Z" fill="white"/>
<path d="M150.445 226.852C151.479 226.852 152.318 226.023 152.318 224.999C152.318 223.976 151.479 223.146 150.445 223.146C149.411 223.146 148.573 223.976 148.573 224.999C148.573 226.023 149.411 226.852 150.445 226.852Z" fill="white"/>
<path d="M164.156 226.852C165.19 226.852 166.028 226.023 166.028 224.999C166.028 223.976 165.19 223.146 164.156 223.146C163.122 223.146 162.284 223.976 162.284 224.999C162.284 226.023 163.122 226.852 164.156 226.852Z" fill="white"/>
<path d="M177.866 226.852C178.9 226.852 179.739 226.023 179.739 224.999C179.739 223.976 178.9 223.146 177.866 223.146C176.832 223.146 175.994 223.976 175.994 224.999C175.994 226.023 176.832 226.852 177.866 226.852Z" fill="white"/>
<path d="M191.577 226.852C192.611 226.852 193.449 226.023 193.449 224.999C193.449 223.976 192.611 223.146 191.577 223.146C190.543 223.146 189.704 223.976 189.704 224.999C189.704 226.023 190.543 226.852 191.577 226.852Z" fill="white"/>
<path d="M205.316 226.852C206.35 226.852 207.188 226.023 207.188 224.999C207.188 223.976 206.35 223.146 205.316 223.146C204.282 223.146 203.444 223.976 203.444 224.999C203.444 226.023 204.282 226.852 205.316 226.852Z" fill="white"/>
<path d="M219.026 226.852C220.06 226.852 220.899 226.023 220.899 224.999C220.899 223.976 220.06 223.146 219.026 223.146C217.992 223.146 217.154 223.976 217.154 224.999C217.154 226.023 217.992 226.852 219.026 226.852Z" fill="white"/>
<path d="M234.609 224.999C234.609 226.026 233.774 226.852 232.737 226.852C231.7 226.852 230.865 226.026 230.865 224.999C230.865 223.973 231.7 223.146 232.737 223.146C233.774 223.146 234.609 223.973 234.609 224.999Z" fill="white"/>
<path d="M33.5612 235.519C34.5952 235.519 35.4334 234.689 35.4334 233.666C35.4334 232.642 34.5952 231.813 33.5612 231.813C32.5272 231.813 31.6889 232.642 31.6889 233.666C31.6889 234.689 32.5272 235.519 33.5612 235.519Z" fill="white"/>
<path d="M49.1438 233.666C49.1438 234.692 48.3085 235.519 47.2716 235.519C46.2347 235.519 45.3994 234.692 45.3994 233.666C45.3994 232.639 46.2347 231.813 47.2716 231.813C48.3085 231.813 49.1438 232.639 49.1438 233.666Z" fill="white"/>
<path d="M62.8542 233.666C62.8542 234.692 62.0189 235.519 60.982 235.519C59.9451 235.519 59.1098 234.692 59.1098 233.666C59.1098 232.639 59.9451 231.813 60.982 231.813C62.0189 231.813 62.8542 232.639 62.8542 233.666Z" fill="white"/>
<path d="M74.7212 235.519C75.7552 235.519 76.5934 234.689 76.5934 233.666C76.5934 232.642 75.7552 231.813 74.7212 231.813C73.6872 231.813 72.849 232.642 72.849 233.666C72.849 234.689 73.6872 235.519 74.7212 235.519Z" fill="white"/>
<path d="M90.3039 233.666C90.3039 234.692 89.4686 235.519 88.4317 235.519C87.3947 235.519 86.5594 234.692 86.5594 233.666C86.5594 232.639 87.3947 231.813 88.4317 231.813C89.4686 231.813 90.3039 232.639 90.3039 233.666Z" fill="white"/>
<path d="M102.142 235.519C103.176 235.519 104.014 234.689 104.014 233.666C104.014 232.642 103.176 231.813 102.142 231.813C101.108 231.813 100.27 232.642 100.27 233.666C100.27 234.689 101.108 235.519 102.142 235.519Z" fill="white"/>
<path d="M115.881 235.519C116.915 235.519 117.754 234.689 117.754 233.666C117.754 232.642 116.915 231.813 115.881 231.813C114.847 231.813 114.009 232.642 114.009 233.666C114.009 234.689 114.847 235.519 115.881 235.519Z" fill="white"/>
<path d="M131.435 233.666C131.435 234.692 130.6 235.519 129.563 235.519C128.526 235.519 127.691 234.692 127.691 233.666C127.691 232.639 128.526 231.813 129.563 231.813C130.6 231.813 131.435 232.639 131.435 233.666Z" fill="white"/>
<path d="M143.302 235.519C144.336 235.519 145.174 234.689 145.174 233.666C145.174 232.642 144.336 231.813 143.302 231.813C142.268 231.813 141.43 232.642 141.43 233.666C141.43 234.689 142.268 235.519 143.302 235.519Z" fill="white"/>
<path d="M157.013 235.519C158.047 235.519 158.885 234.689 158.885 233.666C158.885 232.642 158.047 231.813 157.013 231.813C155.979 231.813 155.14 232.642 155.14 233.666C155.14 234.689 155.979 235.519 157.013 235.519Z" fill="white"/>
<path d="M172.595 233.666C172.595 234.692 171.76 235.519 170.723 235.519C169.686 235.519 168.851 234.692 168.851 233.666C168.851 232.639 169.686 231.813 170.723 231.813C171.76 231.813 172.595 232.639 172.595 233.666Z" fill="white"/>
<path d="M184.462 235.519C185.496 235.519 186.335 234.689 186.335 233.666C186.335 232.642 185.496 231.813 184.462 231.813C183.428 231.813 182.59 232.642 182.59 233.666C182.59 234.689 183.428 235.519 184.462 235.519Z" fill="white"/>
<path d="M198.173 235.519C199.207 235.519 200.045 234.689 200.045 233.666C200.045 232.642 199.207 231.813 198.173 231.813C197.139 231.813 196.3 232.642 196.3 233.666C196.3 234.689 197.139 235.519 198.173 235.519Z" fill="white"/>
<path d="M211.912 235.519C212.946 235.519 213.784 234.689 213.784 233.666C213.784 232.642 212.946 231.813 211.912 231.813C210.878 231.813 210.04 232.642 210.04 233.666C210.04 234.689 210.878 235.519 211.912 235.519Z" fill="white"/>
<path d="M225.622 235.519C226.656 235.519 227.495 234.689 227.495 233.666C227.495 232.642 226.656 231.813 225.622 231.813C224.588 231.813 223.75 232.642 223.75 233.666C223.75 234.689 224.588 235.519 225.622 235.519Z" fill="white"/>
</g>
</svg>
