<svg width="45" height="172" viewBox="0 0 45 172" fill="none" xmlns="http://www.w3.org/2000/svg">
<path d="M42.4242 112.618L21.8881 86.0436L42.5417 59.524L22.0057 32.9497L39.2301 10.8227L26.1403 2.00103L2.05753 32.895L22.5936 59.4876L1.93996 86.0072L22.476 112.581L1.82239 139.101L25.7484 170.086L38.897 161.301L21.7706 139.138L42.4242 112.618Z" fill="#DBFE87"/>
<path d="M25.8072 0.0871582L41.2876 10.531L23.8085 32.9496L44.3445 59.5422L23.6909 86.0436L44.2269 112.636L23.5733 139.137L40.9349 161.629L25.4153 172L0 139.083L20.6536 112.581L0.11757 85.9889L20.7712 59.4875L0.235141 32.8949L25.8072 0.0871582ZM37.1922 11.1324L26.4735 3.91473L3.8799 32.9132L24.4159 59.5057L3.74273 86.0071L24.2788 112.6L3.62516 139.101L26.1011 168.172L36.859 160.991L19.9678 139.119L40.6214 112.618L20.0853 86.0253L40.7389 59.5239L20.2029 32.9314L37.1922 11.1324Z" fill="black"/>
</svg>
