<svg width="152" height="159" viewBox="0 0 152 159" fill="none" xmlns="http://www.w3.org/2000/svg">
<g clip-path="url(#clip0_16_1940)">
<path d="M98.9995 134.083L108.099 118.322L89.4225 97.7846L125.67 87.8875L134.77 72.1268L118.158 59.4144L81.9342 69.2696L72.3157 32.9473L53.0005 24.9172L43.901 40.678L53.4539 77.0181L26.3296 71.1126L17.2301 86.8733L24.7425 115.346L61.0078 105.515L70.5848 141.814L98.9995 134.083Z" fill="black" stroke="black" stroke-width="2" stroke-linejoin="round"/>
<path d="M108.099 118.322L98.522 82.0238L134.77 72.1268L127.258 43.6536L91.0337 53.5089L81.4152 17.1866L53.0005 24.9172L62.5534 61.2574L26.3296 71.1126L33.842 99.5857L70.1073 89.7545L79.6843 126.053L108.099 118.322Z" fill="#FFD04F" stroke="black" stroke-width="2" stroke-linejoin="round"/>
</g>
<defs>
<clipPath id="clip0_16_1940">
<rect width="104" height="123" fill="white" transform="translate(61.7167 0.239502) rotate(30)"/>
</clipPath>
</defs>
</svg>
