<svg width="176" height="183" viewBox="0 0 176 183" fill="none" xmlns="http://www.w3.org/2000/svg">
<g clip-path="url(#clip0_16_963)">
<g filter="url(#filter0_d_16_963)">
<path d="M3.14285 122.821L32.2414 98.5551C51.8571 122.09 86.9704 125.259 110.515 105.624C134.059 85.9886 137.229 50.9161 117.586 27.3809L146.712 3.1416C179.712 42.7099 174.374 101.751 134.791 134.738C95.2069 167.725 36.1429 162.39 3.14285 122.821Z" fill="white"/>
<path d="M75.1305 158.625C72.2044 158.625 69.2512 158.49 66.298 158.219C40.8029 155.917 17.7734 143.865 1.40886 124.257L-0.0270996 122.551L32.5123 95.4406L33.9483 97.1468C43.0517 108.061 55.8941 114.778 70.1182 116.078C84.3153 117.378 98.1601 113.045 109.079 103.945C119.998 94.8448 126.717 82.0074 128.017 67.7888C129.291 53.5973 124.983 39.7579 115.879 28.8434L114.443 27.1372L147.01 0L148.446 1.70623C182.232 42.2224 176.759 102.672 136.254 136.444C118.914 150.88 97.5098 158.598 75.1576 158.598L75.1305 158.625ZM6.3128 123.092C21.7832 140.778 43.1601 151.638 66.7044 153.777C91.0074 155.971 114.687 148.605 133.382 133.032C171.448 101.291 177.084 44.9037 146.414 6.28326L120.702 27.7059C129.616 39.2433 133.788 53.5431 132.461 68.168C131.079 83.5511 123.791 97.4718 111.951 107.33C100.111 117.188 85.1281 121.874 69.7118 120.465C55.0542 119.138 41.7512 112.476 31.9975 101.643L6.3128 123.065V123.092Z" fill="black"/>
</g>
</g>
<defs>
<filter id="filter0_d_16_963" x="-0.0270996" y="0" width="172.629" height="167.625" filterUnits="userSpaceOnUse" color-interpolation-filters="sRGB">
<feFlood flood-opacity="0" result="BackgroundImageFix"/>
<feColorMatrix in="SourceAlpha" type="matrix" values="0 0 0 0 0 0 0 0 0 0 0 0 0 0 0 0 0 0 127 0" result="hardAlpha"/>
<feOffset dx="2" dy="9"/>
<feColorMatrix type="matrix" values="0 0 0 0 0 0 0 0 0 0 0 0 0 0 0 0 0 0 1 0"/>
<feBlend mode="normal" in2="BackgroundImageFix" result="effect1_dropShadow_16_963"/>
<feBlend mode="normal" in="SourceGraphic" in2="effect1_dropShadow_16_963" result="shape"/>
</filter>
<clipPath id="clip0_16_963">
<rect width="176" height="183" fill="white"/>
</clipPath>
</defs>
</svg>
